<?xml version="1.0" encoding="UTF-8"?>
<!DOCTYPE svg PUBLIC "-//W3C//DTD SVG 1.1//EN" "http://www.w3.org/Graphics/SVG/1.1/DTD/svg11.dtd">
<!-- Creator: CorelDRAW -->
<svg xmlns="http://www.w3.org/2000/svg" xml:space="preserve" width="1020px" height="340px" version="1.1" style="shape-rendering:geometricPrecision; text-rendering:geometricPrecision; image-rendering:optimizeQuality; fill-rule:evenodd; clip-rule:evenodd"
viewBox="0 0 1020 340"
 xmlns:xlink="http://www.w3.org/1999/xlink"
 xmlns:xodm="http://www.corel.com/coreldraw/odm/2003">
 <defs>
  <style type="text/css">
   <![CDATA[
    .fil0 {fill:white}
    .fil1 {fill:#FEFEFE;fill-rule:nonzero}
   ]]>
  </style>
 </defs>
 <g id="Layer_x0020_1">
  <metadata id="CorelCorpID_0Corel-Layer"/>
  <g id="_2204467861040">
   <path class="fil0" d="M131.346 198.76c1.172,-1.75 2.583,-3.049 4.097,-4.561 5.331,-5.322 11.436,-12.383 17.014,-17.932l12.597 -13.689c1.671,1.119 62.867,62.712 69.967,69.813 11.636,11.636 21.936,28.24 8.041,42.213 -4.346,4.37 -9.849,6.736 -17.529,7.85 -4.908,0.712 -13.791,-4.7 -17.583,-7.53 -5.901,-4.404 -11.156,-9.972 -16.378,-15.164 -1.232,-1.225 -1.901,-2.23 -3.09,-3.405l-31.701 -32.005c-1.9,-1.9 -24.456,-24.127 -25.435,-25.59zm39.437 138.543l-0.973 0c-1.799,-0.041 -2.615,-0.317 -4.436,-0.32 -5.003,-0.007 -9.667,-0.418 -14.801,-0.97 -8.955,-0.964 -17.741,-2.928 -26.206,-5.338 -15.466,-4.402 -29.638,-11.151 -43.298,-19.479 -4.234,-2.581 -8.319,-5.509 -12.149,-8.571 -1.951,-1.561 -4.032,-2.951 -5.841,-4.674 -0.685,-0.653 -0.855,-0.68 -1.531,-1.252 -4.158,-3.518 -8.138,-7.329 -11.928,-11.266l-2.467 -2.79c-3.543,-3.49 -6.414,-7.616 -9.581,-11.447 -4.837,-5.852 -8.608,-12.511 -12.552,-18.992l-3.663 -6.85c-11.899,-23.8 -18.04,-48.288 -18.04,-75.663 0,-26.275 6.41,-49.84 14.539,-68.031 3.097,-6.931 6.708,-13.745 10.759,-20.165 1.327,-2.102 2.581,-4.216 4.034,-6.172 0.796,-1.072 1.376,-2.026 2.163,-3.093 3.611,-4.896 7.663,-9.485 11.445,-14.223 1.896,-2.378 10.678,-11.144 13.034,-12.943l5.497 -4.708c7.48,-6.538 18.82,-13.952 27.696,-18.383 2.391,-1.193 4.414,-2.205 6.803,-3.401 5.861,-2.935 12.175,-5.376 18.49,-7.487l11.776 -3.378c17.142,-4.286 28.308,-5.01 46.015,-5.01 26.734,0 57.078,9.314 80.157,23.132 12.683,7.594 24.057,16.696 34.498,27.043l9.743 10.976c4.572,5.131 9.494,12.286 13.007,18.227l7.324 13.087c0.578,1.156 1.187,2.229 1.725,3.532 5.361,12.991 8.695,20.884 11.761,34.317 2.508,10.99 4.141,23.694 4.141,36.989 0,23.837 -5.825,51.042 -16.596,72.467 -0.651,1.295 -1.106,2.209 -1.753,3.505 -1.225,2.453 -2.387,4.457 -3.703,6.811 -4.372,7.818 -9.451,14.908 -14.924,21.877 -0.849,1.08 -1.46,1.92 -2.376,2.881 -0.653,0.686 -0.681,0.855 -1.252,1.531 -0.462,0.545 -0.753,0.741 -1.19,1.284l-4.979 5.535c-0.904,0.896 -1.575,1.574 -2.475,2.474l-5.414 5.1c-5.209,5.299 -11.529,9.657 -17.524,14.02 -9.23,6.717 -19.774,12.222 -30.352,16.653 -14.267,5.976 -29.944,10.599 -45.583,11.937 -2.989,0.256 -6.546,0.756 -9.595,0.92 -1.7,0.092 -3.559,-0.094 -5.26,-0.003 -1.455,0.079 -2.443,0.277 -4.165,0.311zm-36.654 -205.959l-54.041 57.288c-0.691,0.692 -1.18,1.158 -1.862,1.85 -0.73,0.74 -1.103,1.542 -1.926,2.093l0 -135.45 123.71 0.298c5.597,0.008 14.645,1.431 20.013,2.562 8.292,1.746 17.539,6.249 23.816,12.057 4.578,4.236 8.664,9.693 11.729,15.175 0.596,1.066 0.97,1.632 1.543,2.787 0.575,1.157 0.874,2.027 1.44,3.199 8.345,17.317 7.981,41.87 2.1,59.519 -2.333,7.001 -5.694,13.679 -9.711,19.049 -0.541,0.723 -0.959,1.294 -1.456,1.946 -7.58,9.932 -22.05,19.168 -34.951,19.168l-18.554 0 0 -87.518c0,-1.509 -3.194,-0.928 -4.639,-0.928l-84.115 0 11.676 11.827c2.742,2.414 13.842,13.008 15.228,15.078z"/>
   <path class="fil1" d="M430.604 194.519l-19.675 0 0 32.742 0 2.484c0,5.813 -0.546,10.881 -1.59,15.154 -1.043,4.273 -2.384,7.9 -4.123,10.881 -1.739,3.03 -3.677,5.465 -5.913,7.353 -2.186,1.888 -4.471,3.428 -6.757,4.521 -5.366,2.634 -11.477,3.627 -18.284,3.081l0 -201.718 94.152 0c8.396,0 15.998,0.994 22.755,3.031 6.757,2.037 12.818,4.72 18.085,8.049 5.267,3.329 9.788,7.105 13.614,11.377 3.775,4.273 6.906,8.645 9.39,13.067 2.434,4.422 4.223,8.794 5.415,13.067 1.143,4.273 1.739,8.049 1.739,11.378 0,4.968 -0.397,9.539 -1.142,13.763 -0.795,4.223 -1.988,8.197 -3.528,11.923 -1.59,3.727 -3.577,7.304 -5.962,10.633 -2.385,3.379 -5.167,6.658 -8.297,9.887 -8.149,7.999 -17.936,13.465 -29.264,16.446l-0.448 0.099 52.566 76.364 -45.808 0 -38.108 -58.577c-1.391,-2.782 -3.329,-5.267 -5.863,-7.502 -1.093,-0.944 -2.385,-1.839 -3.776,-2.733 -1.441,-0.894 -3.13,-1.689 -5.018,-2.385 -1.888,-0.745 -4.024,-1.292 -6.36,-1.739 -2.335,-0.447 -4.968,-0.646 -7.8,-0.646zm72.142 -65.533c0,-1.59 -0.199,-3.329 -0.646,-5.217 -0.448,-1.888 -1.193,-3.726 -2.286,-5.565 -1.093,-1.838 -2.584,-3.626 -4.372,-5.366 -1.838,-1.738 -4.124,-3.229 -6.857,-4.57 -2.732,-1.292 -5.962,-2.385 -9.737,-3.18 -3.777,-0.795 -8.149,-1.193 -13.117,-1.193l-54.802 0 0 41.586c0.746,1.938 1.739,3.627 3.081,5.068 1.292,1.441 2.782,2.683 4.422,3.676 1.639,1.044 3.378,1.839 5.216,2.485 1.789,0.645 3.627,1.142 5.466,1.54 4.223,0.894 8.794,1.242 13.762,1.093l22.855 0c6.111,0 11.477,-0.894 16.097,-2.683 4.621,-1.739 8.546,-4.223 11.776,-7.453 1.49,-1.49 2.782,-2.981 3.925,-4.372 1.142,-1.441 2.136,-2.882 2.881,-4.422 0.795,-1.54 1.342,-3.229 1.739,-5.018 0.398,-1.838 0.597,-3.975 0.597,-6.409z"/>
   <path class="fil1" d="M675.683 70.024l-84.065 199.432 -36.22 0 69.757 -166.343 -59.174 0c-5.167,0 -9.688,-0.497 -13.514,-1.44 -3.826,-0.945 -7.105,-2.187 -9.838,-3.727 -2.782,-1.54 -5.018,-3.329 -6.806,-5.266 -1.839,-1.988 -3.23,-3.975 -4.323,-6.062 -2.534,-4.869 -3.677,-10.384 -3.478,-16.594l147.661 0zm157.4 0l-84.066 199.432 -36.22 0 69.757 -166.343 -59.174 0c-5.167,0 -9.688,-0.497 -13.514,-1.44 -3.826,-0.945 -7.105,-2.187 -9.838,-3.727 -2.782,-1.54 -5.018,-3.329 -6.806,-5.266 -1.839,-1.988 -3.23,-3.975 -4.323,-6.062 -2.534,-4.869 -3.676,-10.384 -3.477,-16.594l147.661 0zm157.399 0l-84.066 199.432 -36.219 0 69.756 -166.343 -59.174 0c-5.167,0 -9.688,-0.497 -13.514,-1.44 -3.826,-0.945 -7.105,-2.187 -9.837,-3.727 -2.783,-1.54 -5.019,-3.329 -6.807,-5.266 -1.838,-1.988 -3.229,-3.975 -4.322,-6.062 -2.534,-4.869 -3.677,-10.384 -3.478,-16.594l147.661 0z"/>
  </g>
 </g>
</svg>
