<?xml version="1.0" encoding="UTF-8"?>
<!DOCTYPE svg PUBLIC "-//W3C//DTD SVG 1.1//EN" "http://www.w3.org/Graphics/SVG/1.1/DTD/svg11.dtd">
<!-- Creator: CorelDRAW 2021 (64-Bit Evaluation Version) -->
<svg xmlns="http://www.w3.org/2000/svg" xml:space="preserve" width="43.3492mm" height="43.3492mm" version="1.1" style="shape-rendering:geometricPrecision; text-rendering:geometricPrecision; image-rendering:optimizeQuality; fill-rule:evenodd; clip-rule:evenodd"
viewBox="0 0 4334.92 4334.92"
 xmlns:xlink="http://www.w3.org/1999/xlink"
 xmlns:xodm="http://www.corel.com/coreldraw/odm/2003">
 <defs>
  <style type="text/css">
   <![CDATA[
    .fil15 {fill:black;fill-rule:nonzero}
    .fil1 {fill:#269AB1;fill-rule:nonzero}
    .fil0 {fill:#44BFD7;fill-rule:nonzero}
    .fil2 {fill:#453D83;fill-rule:nonzero}
    .fil13 {fill:#455A64;fill-rule:nonzero}
    .fil3 {fill:#51489A;fill-rule:nonzero}
    .fil4 {fill:#5F55AF;fill-rule:nonzero}
    .fil12 {fill:#8078BF;fill-rule:nonzero}
    .fil10 {fill:#FCF2B6;fill-rule:nonzero}
    .fil5 {fill:#FF2EA6;fill-rule:nonzero}
    .fil9 {fill:#FF9F22;fill-rule:nonzero}
    .fil14 {fill:#FFC107;fill-rule:nonzero}
    .fil8 {fill:#FFC14F;fill-rule:nonzero}
    .fil11 {fill:#FFCD71;fill-rule:nonzero}
    .fil7 {fill:#FFDE91;fill-rule:nonzero}
    .fil6 {fill:#FFF5F5;fill-rule:nonzero}
   ]]>
  </style>
 </defs>
 <g id="Layer_x0020_1">
  <metadata id="CorelCorpID_0Corel-Layer"/>
  <g id="casino.svg">
   <g>
    <path class="fil0" d="M-1375.88 10949.38c0,-1124.6 910.69,-2036.49 2034.84,-2038.42 1119.84,-1.92 2036.75,908.84 2041.98,2028.67 3.26,698.24 -344.56,1315.45 -877.11,1685.25 -50.85,35.31 -111.48,53.78 -173.37,53.78l-1979.46 0c-59.19,0 -117.24,-17.48 -165.94,-51.14 -532.22,-367.79 -880.94,-982.25 -880.94,-1678.14z"/>
    <path class="fil1" d="M2247.09 12016.36l152.65 0c-147.73,240.02 -343.81,447.1 -574.67,607.65 -104.78,72.88 -2220.32,72.86 -2325.11,-0.03 -264.99,-184.31 -484.15,-429.9 -636.97,-716.26l0 -170.05c0,-21.98 17.83,-39.81 39.82,-39.81l79.62 0c21.99,0 39.81,17.83 39.81,39.81l0 159.25c0,21.99 17.83,39.82 39.82,39.82l159.25 0c21.98,0 39.81,-17.83 39.81,-39.82l0 -398.13c0,-21.98 17.83,-39.81 39.81,-39.81l398.13 0c21.99,0 39.82,17.83 39.82,39.81l0 477.76c0,21.98 17.82,39.81 39.81,39.81l238.88 0c21.98,0 39.81,-17.82 39.81,-39.81l0 -398.13c0,-21.98 17.83,-39.81 39.81,-39.81l79.63 0c21.98,0 39.81,17.83 39.81,39.81l0 597.2 159.25 -0.01 0 -796.25c0,-21.99 17.83,-39.82 39.82,-39.82l159.25 0c21.98,0 39.81,17.83 39.81,39.82l0 597.19c0,21.99 17.83,39.81 39.81,39.81l159.26 0c21.98,0 39.81,-17.82 39.81,-39.81l0 -79.62c0,-21.99 17.83,-39.82 39.81,-39.82l238.88 0c21.98,0 39.81,17.83 39.81,39.81l0 278.69 238.88 0 0 -199.06c0,-21.99 17.83,-39.81 39.81,-39.81l477.76 0c21.98,0 39.81,-17.83 39.81,-39.82l0 -477.75c0,-21.99 17.83,-39.81 39.81,-39.81l159.26 0c21.98,0 39.81,17.82 39.81,39.81l0 557.38c0,21.98 17.83,39.81 39.81,39.81l0 0z"/>
    <path class="fil2" d="M1598.14 10630.87c-43.98,0 -79.63,35.65 -79.63,79.63l0 716.63 -1711.95 0 0 -716.63c0,-43.98 -35.65,-79.63 -79.63,-79.63 -43.97,0 -79.62,35.65 -79.62,79.63l0 1433.26c0,43.98 35.65,79.63 79.62,79.63 43.98,0 79.63,-35.65 79.63,-79.63l0 -238.87 1711.95 0 0 238.87c0,43.98 35.65,79.63 79.63,79.63 43.98,0 79.62,-35.65 79.62,-79.63l0 -1433.26c0,-43.98 -35.64,-79.63 -79.62,-79.63zm-1791.58 1114.76l0 -159.25 1711.95 0 0 159.26 -1711.95 -0.01z"/>
    <path class="fil3" d="M1012.9 11821.28l0 7.96c0,41.78 -33.87,75.65 -75.65,75.65l-581.27 0c-41.78,0 -75.64,-33.87 -75.64,-75.65l0 -7.96c0,-41.78 33.87,-75.64 75.64,-75.64l581.27 -0.01c41.78,0 75.65,33.87 75.65,75.65l0 0zm163.22 -394.15l-581.27 0c-41.78,0 -75.64,33.87 -75.64,75.64l0 7.97c0,41.78 33.87,75.64 75.64,75.64l581.27 0c41.78,0 75.65,-33.86 75.65,-75.64l0 -7.96c0,-41.78 -33.87,-75.65 -75.65,-75.65l0 0z"/>
    <path class="fil3" d="M1777.3 11220.1l-2229.53 0c-483.73,0 -875.88,-392.15 -875.88,-875.88 0,-483.74 392.15,-875.89 875.88,-875.89l2229.53 0.01c483.73,0 875.88,392.15 875.88,875.88 0,483.74 -392.15,875.89 -875.88,875.89l0 -0.01z"/>
    <path class="fil4" d="M1785.39 11220.1l-1592.51 0c-483.73,0 -875.89,-392.15 -875.89,-875.88 0,-483.74 392.16,-875.89 875.89,-875.89l1592.51 0.01c483.74,0 875.89,392.15 875.89,875.88 0,483.74 -392.15,875.89 -875.89,875.89l0 -0.01z"/>
    <path class="fil2" d="M1770.8 9414.07l-2216.53 0c-512.89,0 -930.16,417.26 -930.16,930.15 0,512.89 417.27,930.15 930.16,930.15l2216.54 0c512.88,0 930.15,-417.26 930.15,-930.15 0,-512.89 -417.27,-930.15 -930.16,-930.15l0 0zm0 1741.56l-2216.53 0c-447.41,0 -811.41,-363.99 -811.41,-811.41 0,-447.42 363.99,-811.41 811.41,-811.41l2216.54 0c447.41,0 811.41,363.99 811.41,811.41 0,447.41 -364,811.41 -811.42,811.41l0 0z"/>
    <path class="fil5" d="M1992.7 9915.29c-128.41,0 -243.83,56.74 -322.51,146.45 -15.51,-83.12 -88.87,-146.45 -176.14,-146.45l-1.17 0 -0.57 0.01c-47.86,0.46 -92.67,19.53 -126.18,53.7 -18.75,19.11 -32.7,41.68 -41.28,66.23l-28.75 -41.65c-33.44,-48.43 -88.56,-77.34 -147.43,-77.34 -18.03,0 -35.92,2.71 -53.17,8.07 -31.1,9.69 -57.98,27.08 -78.83,49.71 -32.8,-36.05 -80.06,-58.72 -132.52,-58.72 -65.41,0 -122.75,35.24 -154.03,87.72 -30,-23.4 -123.93,-87.73 -250.4,-87.73 -35.55,0 -70.84,5.2 -104.91,15.46 -112.93,34.03 -193.08,124.86 -209.18,237.04 -5.38,37.44 -3.25,74.41 5.62,109.19l-90.12 -238.77 -0.15 -0.4 -0.15 -0.41c-0.55,-1.43 -1.12,-2.87 -1.72,-4.3 -29.42,-71.49 -98.56,-117.8 -176.06,-117.8l-0.06 0c-77.66,0.08 -146.73,46.46 -176.15,118.17 -0.62,1.48 -1.2,2.97 -1.76,4.46l-129.81 340.8c-30.55,-22.27 -67.58,-34.41 -105.54,-34.41 -53.12,0 -103.16,23.33 -137.29,64 -0.97,1.16 -1.72,1.88 -2.09,2.2 -1.27,1.13 -4.83,4.3 -18,4.3 -38.93,0 -70.61,-31.68 -70.61,-70.6 0,-38.93 31.68,-70.6 70.61,-70.6 14.16,0 27.77,4.13 39.34,11.94 29.71,20.09 64.38,30.72 100.24,30.72 59.62,0 115.14,-29.48 148.5,-78.85 55.31,-81.85 33.71,-193.44 -48.13,-248.75 -71.03,-48 -154,-73.38 -239.95,-73.38 -236.51,0 -428.92,192.42 -428.92,428.92 0,236.5 192.41,428.91 428.92,428.91 85.4,0 163.75,-25 228.66,-72.64 19.68,26.71 46.97,48.24 80.21,60.91 20.43,7.79 41.91,11.76 63.77,11.76 73.85,0 141.14,-46.39 167.43,-115.41l2.77 -7.28 54.02 0.01 2.55 6.76c26.18,69.34 93.55,115.91 167.63,115.91 21.65,0 42.93,-3.9 63.26,-11.57 34.09,-12.85 62.83,-35.26 83.3,-64.49 69.3,48.47 155.13,76.04 242.07,76.04 93.22,0 178.09,-35.67 238.37,-94.26 30.31,56.08 89.65,94.26 157.74,94.26 52.33,0 99.48,-22.54 132.26,-58.43 32.78,35.89 79.94,58.43 132.26,58.43 77.47,0 143.61,-49.43 168.55,-118.4l21.15 30.63c35.62,51.5 93.16,82.21 153.98,82.21 18.54,0 36.99,-2.82 54.8,-8.37 61.85,-19.3 107.64,-69.27 124.08,-131.31 78.65,89.03 193.61,145.25 321.46,145.25 236.5,0 428.92,-192.41 428.92,-428.91 0.04,-236.52 -192.38,-428.94 -428.89,-428.94l0 0zm0 499.53c-38.92,0 -70.59,-31.68 -70.59,-70.6 0,-38.93 31.66,-70.6 70.59,-70.6 38.93,0 70.61,31.67 70.61,70.6 0.01,38.92 -31.67,70.6 -70.61,70.6z"/>
    <path class="fil6" d="M-30.59 10080.38c-0.21,-0.54 -0.42,-1.1 -0.66,-1.64 -11,-26.73 -36.78,-44 -65.69,-44l-0.07 0c-28.94,0.03 -54.72,17.36 -65.68,44.14 -0.18,0.46 -0.36,0.9 -0.53,1.36l-187.57 492.48c-11.74,30.83 3.72,65.33 34.54,77.07 30.83,11.77 65.33,-3.73 77.06,-34.54l32.07 -84.2 218.92 0 31.71 84.02c9.03,23.91 31.75,38.66 55.89,38.66 7,0 14.13,-1.25 21.07,-3.87 30.86,-11.64 46.44,-46.09 34.79,-76.95l-185.85 -492.53zm-131.03 331.21l64.48 -169.28 63.88 169.28 -128.36 0zm1715.39 -317.71l4.67 482.68c0,33.02 -18.4,59.74 -46.85,68.62 -27.89,8.7 -57.28,-2.18 -74.92,-27.7l-228.27 -330.53 0 307.02c0,32.99 -26.73,59.72 -59.72,59.72 -32.99,0 -59.72,-26.73 -59.72,-59.72l0 -498.58c0,-26.13 17,-49.24 41.95,-57.01 24.98,-7.76 52.07,1.57 66.92,23.08l239.54 346.86 -3.04 -313.28c-0.32,-32.98 26.16,-59.98 59.15,-60.3l0.59 0c32.71,-0.01 59.38,26.36 59.7,59.14l0 0zm-609.89 0.57l0 499.52c0,32.99 -26.73,59.72 -59.72,59.72 -32.99,0 -59.72,-26.73 -59.72,-59.72l0 -499.52c0,-32.99 26.73,-59.72 59.72,-59.72 32.99,0 59.72,26.74 59.72,59.72zm-1408.42 467.4c-8.16,9.73 -17.01,18.86 -26.32,27.14 -47.51,42.32 -108.65,64.71 -176.78,64.71 -170.64,0 -309.48,-138.84 -309.48,-309.48 0,-170.65 138.84,-309.48 309.48,-309.48 62.02,0 121.87,18.29 173.08,52.9 27.33,18.47 34.51,55.59 16.04,82.92 -18.46,27.32 -55.59,34.51 -82.92,16.04 -31.39,-21.21 -68.11,-32.42 -106.2,-32.42 -104.79,0 -190.05,85.26 -190.05,190.05 0,104.78 85.26,190.03 190.05,190.03 38.92,0 71.67,-11.59 97.35,-34.47 5.01,-4.46 9.8,-9.4 14.24,-14.7 21.2,-25.26 58.87,-28.57 84.14,-7.37 25.28,21.19 28.57,58.86 7.38,84.13l-0.01 0zm1160.1 -65.64c-16.29,91.25 -103.57,157.48 -207.53,157.48 -83.55,0 -165.17,-35.02 -218.31,-93.67 -22.15,-24.44 -20.29,-62.21 4.15,-84.35 24.43,-22.15 62.21,-20.29 84.35,4.14 30.88,34.08 79.41,54.43 129.81,54.43 49.71,0 84.77,-30.02 89.94,-59.04 6.99,-39.15 -44.68,-62.72 -67.23,-71.04 -77.38,-28.54 -146.09,-59.13 -148.98,-60.41 -2.87,-1.28 -5.64,-2.8 -8.29,-4.51 -51.77,-33.75 -78.44,-92.96 -69.61,-154.5 9.43,-65.66 57.48,-119.17 125.41,-139.64 135.09,-40.69 246.31,51.06 250.99,54.98 25.24,21.23 28.5,58.89 7.28,84.14 -21.14,25.15 -58.6,28.47 -83.85,7.52 -1.86,-1.49 -68.15,-53.93 -139.97,-32.28 -33.56,10.11 -40.3,32.91 -41.63,42.24 -0.99,6.88 -1.48,23.45 13.49,35.25 17.17,7.51 74.68,32.36 136.5,55.16 124.46,45.91 155.73,135.53 143.48,204.1l0 0zm1297.15 -461.48c-170.65,0 -309.48,138.84 -309.48,309.48 0,170.65 138.84,309.48 309.48,309.48 170.65,0 309.48,-138.84 309.48,-309.48 0,-170.64 -138.83,-309.48 -309.48,-309.48zm0 499.52c-104.79,0 -190.03,-85.24 -190.03,-190.03 0,-104.79 85.24,-190.04 190.03,-190.04 104.79,0 190.04,85.24 190.04,190.04 0,104.8 -85.25,190.03 -190.04,190.03z"/>
    <path class="fil7" d="M562.64 9307.17l50.58 92.5c1.5,2.73 3.75,4.99 6.5,6.49l92.49 50.59c11.33,6.19 11.33,22.48 0,28.67l-92.49 50.6c-2.74,1.49 -4.99,3.75 -6.5,6.5l-50.58 92.49c-6.2,11.33 -22.48,11.33 -28.68,0l-50.58 -92.49c-1.5,-2.74 -3.75,-5 -6.5,-6.5l-92.49 -50.59c-11.34,-6.19 -11.34,-22.48 0,-28.67l92.49 -50.59c2.74,-1.49 4.99,-3.75 6.5,-6.5l50.58 -92.49c6.2,-11.34 22.48,-11.34 28.68,-0.01z"/>
    <path class="fil6" d="M1277.72 9858.1l-160 53.32c-8.41,2.81 -15,9.41 -17.81,17.82l-53.33 159.99c-8.56,25.68 -44.89,25.68 -53.45,0l-53.33 -159.99c-2.8,-8.42 -9.41,-15.01 -17.82,-17.82l-159.99 -53.32c-25.68,-8.56 -25.68,-44.89 0,-53.45l159.99 -53.33c8.41,-2.8 15.01,-9.41 17.82,-17.82l53.33 -159.99c8.56,-25.68 44.89,-25.68 53.45,0l53.33 159.99c2.8,8.41 9.4,15.01 17.81,17.82l160 53.33c25.68,8.56 25.68,44.89 0,53.45z"/>
    <path class="fil8" d="M1825.07 12267.18l0 356.83c-329.74,229.34 -730.44,363.79 -1162.53,363.79 -432.1,0 -832.79,-134.45 -1162.54,-363.79l0 -356.83c0,-41.78 33.86,-75.64 75.64,-75.64l2173.79 0c41.78,0 75.64,33.87 75.64,75.64l0 0z"/>
    <path class="fil9" d="M-193.44 12799.9c-107.6,-49.86 -210.12,-108.81 -306.56,-175.89l0 -356.83c0,-41.78 33.86,-75.64 75.64,-75.64l230.92 0 0 608.36z"/>
    <path class="fil10" d="M1984.32 12299.04l0 7.96c0,41.78 -33.86,75.64 -75.64,75.64l-2492.29 0c-41.78,0 -75.64,-33.86 -75.64,-75.64l0 -7.96c0,-41.79 33.86,-75.65 75.64,-75.65l2492.29 0c41.78,0 75.64,33.86 75.64,75.64l0 0.01z"/>
    <path class="fil11" d="M2223.2 12147.75l0 7.96c0,41.78 -33.86,75.64 -75.64,75.64l-2970.05 0c-41.78,0 -75.64,-33.86 -75.64,-75.64l0 -7.96c0,-41.78 33.87,-75.65 75.64,-75.65l2970.05 0c41.78,0 75.64,33.87 75.64,75.65z"/>
    <path class="fil3" d="M101.56 12653.37l1121.94 0 0 197.29c0,35.02 -23.58,65.86 -57.52,74.49 -142.52,36.2 -291.02,57.39 -443.73,61.79 -19.84,0.57 -39.74,-57.54 -59.72,-57.54 -19.98,0 -39.89,58.1 -59.72,57.54 -152.96,-4.41 -301.69,-25.65 -444.41,-61.96 -33.54,-8.53 -56.85,-39 -56.85,-73.61l0 -198 0.01 0z"/>
    <path class="fil12" d="M1283.23 12653.37l0 238.21c-39.31,12.55 -79.13,23.94 -119.44,34.13l0 -212.62 -441.53 0 0 273.85c-19.84,0.57 -39.74,0.86 -59.72,0.86 -19.98,0 -39.89,-0.29 -59.72,-0.86l0 -273.85 -441.54 0 0 212.62c-40.3,-10.2 -80.12,-21.58 -119.44,-34.14l0 -238.2c0,-32.99 26.74,-59.72 59.72,-59.72l1121.95 0c32.99,0 59.72,26.73 59.72,59.72l0 0z"/>
   </g>
  </g>
  <g id="lock.svg">
   <path class="fil13" d="M650.39 10773.14c-218.83,0.24 -396.16,158.89 -396.43,354.67l0 218.26c0,15.07 13.66,27.28 30.5,27.28l121.97 0c16.85,0 30.5,-12.21 30.5,-27.28l0 -218.26c0,-105.47 95.57,-190.98 213.46,-190.98 117.88,0 213.45,85.51 213.45,190.98l0 218.26c0,15.07 13.66,27.28 30.5,27.28l121.97 0c16.84,0 30.5,-12.21 30.5,-27.28l0 -218.26c-0.27,-195.78 -177.6,-354.43 -396.42,-354.67z"/>
   <path class="fil14" d="M284.46 11318.79l731.85 0c84.21,0 152.47,61.07 152.47,136.41l0 491.08c0,75.34 -68.26,136.41 -152.47,136.41l-731.85 0c-84.21,0 -152.47,-61.07 -152.47,-136.41l0 -491.08c0,-75.34 68.26,-136.41 152.47,-136.41z"/>
   <path class="fil13" d="M802.85 11618.89c0.36,-75.34 -67.62,-136.67 -151.82,-136.98 -84.21,-0.32 -152.76,60.49 -153.11,135.83 -0.25,52.08 32.67,99.73 84.83,122.83l-23.54 147.32c-2.36,14.92 9.25,28.73 25.92,30.84 1.41,0.18 2.84,0.27 4.27,0.27l121.97 0c16.84,0.15 30.63,-11.94 30.8,-27.01 0.02,-1.39 -0.08,-2.78 -0.31,-4.15l-23.54 -147.32c51.53,-23.07 84.2,-70.08 84.53,-121.63z"/>
   <path class="fil15" d="M1016.31 11373.35l-121.97 0c-16.85,0 -30.5,-12.21 -30.5,-27.28l0 -218.26c0,-105.47 -95.57,-190.98 -213.45,-190.98 -117.89,0 -213.46,85.51 -213.46,190.98l0 218.26c0,15.07 -13.66,27.28 -30.5,27.28l-121.97 0c-16.84,0 -30.5,-12.21 -30.5,-27.28l0 -218.26c0,-195.88 177.49,-354.67 396.43,-354.67 218.93,0 396.42,158.79 396.42,354.67l0 218.26c0,15.07 -13.66,27.28 -30.5,27.28zm-91.48 -54.56l60.99 0 0 -190.98c0,-165.74 -150.18,-300.11 -335.43,-300.11 -185.26,0 -335.44,134.37 -335.44,300.11l0 190.98 60.99 0 0 -190.98c0,-135.61 122.87,-245.54 274.45,-245.54 151.57,0 274.44,109.93 274.44,245.54l0 190.98z"/>
   <path class="fil15" d="M1016.31 12082.69l-731.85 0c-84.21,0 -152.47,-61.07 -152.47,-136.41l0 -491.08c0,-75.34 68.26,-136.41 152.47,-136.41l731.85 0c84.21,0 152.47,61.07 152.47,136.41l0 491.08c0,75.34 -68.26,136.41 -152.47,136.41zm-731.85 -709.34c-50.52,0 -91.48,36.65 -91.48,81.85l0 491.08c0,45.2 40.96,81.85 91.48,81.85l731.85 0c50.53,0 91.48,-36.65 91.48,-81.85l0 -491.08c0,-45.2 -40.95,-81.85 -91.48,-81.85l-731.85 0z"/>
   <path class="fil15" d="M711.37 11919l-121.97 0c-16.85,0.15 -30.64,-11.94 -30.81,-27.01 -0.01,-1.39 0.09,-2.78 0.31,-4.15l23.55 -147.32c-75.47,-33.44 -106.34,-115.27 -68.97,-182.79 37.37,-67.51 128.84,-95.13 204.3,-61.7 75.46,33.44 106.33,115.27 68.96,182.78 -14.81,26.77 -39.04,48.45 -68.96,61.71l23.54 147.32c2.39,14.91 -9.18,28.74 -25.86,30.88 -1.35,0.17 -2.72,0.27 -4.09,0.28zm-86.84 -54.57l51.72 0 -21.96 -137.39c-2.16,-13.43 7.04,-26.24 21.59,-30.07 39.07,-9.85 66.04,-41.76 65.99,-78.08 0,-45.2 -40.96,-81.85 -91.48,-81.85 -50.53,0 -91.48,36.65 -91.48,81.85 -0.05,36.32 26.92,68.23 65.99,78.08 14.55,3.83 23.75,16.64 21.59,30.07l-21.96 137.39z"/>
   <g>
   </g>
   <g>
   </g>
   <g>
   </g>
   <g>
   </g>
   <g>
   </g>
   <g>
   </g>
   <g>
   </g>
   <g>
   </g>
   <g>
   </g>
   <g>
   </g>
   <g>
   </g>
   <g>
   </g>
   <g>
   </g>
   <g>
   </g>
   <g>
   </g>
  </g>
  <g id="casino.svg_0">
   <g>
    <path class="fil0" d="M-1375.88 10949.38c0,-1124.6 910.69,-2036.49 2034.84,-2038.42 1119.84,-1.92 2036.75,908.84 2041.98,2028.67 3.26,698.24 -344.56,1315.45 -877.11,1685.25 -50.85,35.31 -111.48,53.78 -173.37,53.78l-1979.46 0c-59.19,0 -117.24,-17.48 -165.94,-51.14 -532.22,-367.79 -880.94,-982.25 -880.94,-1678.14z"/>
    <path class="fil1" d="M2247.09 12016.36l152.65 0c-147.73,240.02 -343.81,447.1 -574.67,607.65 -104.78,72.88 -2220.32,72.86 -2325.11,-0.03 -264.99,-184.31 -484.15,-429.9 -636.97,-716.26l0 -170.05c0,-21.98 17.83,-39.81 39.82,-39.81l79.62 0c21.99,0 39.81,17.83 39.81,39.81l0 159.25c0,21.99 17.83,39.82 39.82,39.82l159.25 0c21.98,0 39.81,-17.83 39.81,-39.82l0 -398.13c0,-21.98 17.83,-39.81 39.81,-39.81l398.13 0c21.99,0 39.82,17.83 39.82,39.81l0 477.76c0,21.98 17.82,39.81 39.81,39.81l238.88 0c21.98,0 39.81,-17.82 39.81,-39.81l0 -398.13c0,-21.98 17.83,-39.81 39.81,-39.81l79.63 0c21.98,0 39.81,17.83 39.81,39.81l0 597.2 159.25 -0.01 0 -796.25c0,-21.99 17.83,-39.82 39.82,-39.82l159.25 0c21.98,0 39.81,17.83 39.81,39.82l0 597.19c0,21.99 17.83,39.81 39.81,39.81l159.26 0c21.98,0 39.81,-17.82 39.81,-39.81l0 -79.62c0,-21.99 17.83,-39.82 39.81,-39.82l238.88 0c21.98,0 39.81,17.83 39.81,39.81l0 278.69 238.88 0 0 -199.06c0,-21.99 17.83,-39.81 39.81,-39.81l477.76 0c21.98,0 39.81,-17.83 39.81,-39.82l0 -477.75c0,-21.99 17.83,-39.81 39.81,-39.81l159.26 0c21.98,0 39.81,17.82 39.81,39.81l0 557.38c0,21.98 17.83,39.81 39.81,39.81l0 0z"/>
    <path class="fil2" d="M1598.14 10630.87c-43.98,0 -79.63,35.65 -79.63,79.63l0 716.63 -1711.95 0 0 -716.63c0,-43.98 -35.65,-79.63 -79.63,-79.63 -43.97,0 -79.62,35.65 -79.62,79.63l0 1433.26c0,43.98 35.65,79.63 79.62,79.63 43.98,0 79.63,-35.65 79.63,-79.63l0 -238.87 1711.95 0 0 238.87c0,43.98 35.65,79.63 79.63,79.63 43.98,0 79.62,-35.65 79.62,-79.63l0 -1433.26c0,-43.98 -35.64,-79.63 -79.62,-79.63zm-1791.58 1114.76l0 -159.25 1711.95 0 0 159.26 -1711.95 -0.01z"/>
    <path class="fil3" d="M1012.9 11821.28l0 7.96c0,41.78 -33.87,75.65 -75.65,75.65l-581.27 0c-41.78,0 -75.64,-33.87 -75.64,-75.65l0 -7.96c0,-41.78 33.87,-75.64 75.64,-75.64l581.27 -0.01c41.78,0 75.65,33.87 75.65,75.65l0 0zm163.22 -394.15l-581.27 0c-41.78,0 -75.64,33.87 -75.64,75.64l0 7.97c0,41.78 33.87,75.64 75.64,75.64l581.27 0c41.78,0 75.65,-33.86 75.65,-75.64l0 -7.96c0,-41.78 -33.87,-75.65 -75.65,-75.65l0 0z"/>
    <path class="fil3" d="M1777.3 11220.1l-2229.53 0c-483.73,0 -875.88,-392.15 -875.88,-875.88 0,-483.74 392.15,-875.89 875.88,-875.89l2229.53 0.01c483.73,0 875.88,392.15 875.88,875.88 0,483.74 -392.15,875.89 -875.88,875.89l0 -0.01z"/>
    <path class="fil4" d="M1785.39 11220.1l-1592.51 0c-483.73,0 -875.89,-392.15 -875.89,-875.88 0,-483.74 392.16,-875.89 875.89,-875.89l1592.51 0.01c483.74,0 875.89,392.15 875.89,875.88 0,483.74 -392.15,875.89 -875.89,875.89l0 -0.01z"/>
    <path class="fil2" d="M1770.8 9414.07l-2216.53 0c-512.89,0 -930.16,417.26 -930.16,930.15 0,512.89 417.27,930.15 930.16,930.15l2216.54 0c512.88,0 930.15,-417.26 930.15,-930.15 0,-512.89 -417.27,-930.15 -930.16,-930.15l0 0zm0 1741.56l-2216.53 0c-447.41,0 -811.41,-363.99 -811.41,-811.41 0,-447.42 363.99,-811.41 811.41,-811.41l2216.54 0c447.41,0 811.41,363.99 811.41,811.41 0,447.41 -364,811.41 -811.42,811.41l0 0z"/>
    <path class="fil5" d="M1992.7 9915.29c-128.41,0 -243.83,56.74 -322.51,146.45 -15.51,-83.12 -88.87,-146.45 -176.14,-146.45l-1.17 0 -0.57 0.01c-47.86,0.46 -92.67,19.53 -126.18,53.7 -18.75,19.11 -32.7,41.68 -41.28,66.23l-28.75 -41.65c-33.44,-48.43 -88.56,-77.34 -147.43,-77.34 -18.03,0 -35.92,2.71 -53.17,8.07 -31.1,9.69 -57.98,27.08 -78.83,49.71 -32.8,-36.05 -80.06,-58.72 -132.52,-58.72 -65.41,0 -122.75,35.24 -154.03,87.72 -30,-23.4 -123.93,-87.73 -250.4,-87.73 -35.55,0 -70.84,5.2 -104.91,15.46 -112.93,34.03 -193.08,124.86 -209.18,237.04 -5.38,37.44 -3.25,74.41 5.62,109.19l-90.12 -238.77 -0.15 -0.4 -0.15 -0.41c-0.55,-1.43 -1.12,-2.87 -1.72,-4.3 -29.42,-71.49 -98.56,-117.8 -176.06,-117.8l-0.06 0c-77.66,0.08 -146.73,46.46 -176.15,118.17 -0.62,1.48 -1.2,2.97 -1.76,4.46l-129.81 340.8c-30.55,-22.27 -67.58,-34.41 -105.54,-34.41 -53.12,0 -103.16,23.33 -137.29,64 -0.97,1.16 -1.72,1.88 -2.09,2.2 -1.27,1.13 -4.83,4.3 -18,4.3 -38.93,0 -70.61,-31.68 -70.61,-70.6 0,-38.93 31.68,-70.6 70.61,-70.6 14.16,0 27.77,4.13 39.34,11.94 29.71,20.09 64.38,30.72 100.24,30.72 59.62,0 115.14,-29.48 148.5,-78.85 55.31,-81.85 33.71,-193.44 -48.13,-248.75 -71.03,-48 -154,-73.38 -239.95,-73.38 -236.51,0 -428.92,192.42 -428.92,428.92 0,236.5 192.41,428.91 428.92,428.91 85.4,0 163.75,-25 228.66,-72.64 19.68,26.71 46.97,48.24 80.21,60.91 20.43,7.79 41.91,11.76 63.77,11.76 73.85,0 141.14,-46.39 167.43,-115.41l2.77 -7.28 54.02 0.01 2.55 6.76c26.18,69.34 93.55,115.91 167.63,115.91 21.65,0 42.93,-3.9 63.26,-11.57 34.09,-12.85 62.83,-35.26 83.3,-64.49 69.3,48.47 155.13,76.04 242.07,76.04 93.22,0 178.09,-35.67 238.37,-94.26 30.31,56.08 89.65,94.26 157.74,94.26 52.33,0 99.48,-22.54 132.26,-58.43 32.78,35.89 79.94,58.43 132.26,58.43 77.47,0 143.61,-49.43 168.55,-118.4l21.15 30.63c35.62,51.5 93.16,82.21 153.98,82.21 18.54,0 36.99,-2.82 54.8,-8.37 61.85,-19.3 107.64,-69.27 124.08,-131.31 78.65,89.03 193.61,145.25 321.46,145.25 236.5,0 428.92,-192.41 428.92,-428.91 0.04,-236.52 -192.38,-428.94 -428.89,-428.94l0 0zm0 499.53c-38.92,0 -70.59,-31.68 -70.59,-70.6 0,-38.93 31.66,-70.6 70.59,-70.6 38.93,0 70.61,31.67 70.61,70.6 0.01,38.92 -31.67,70.6 -70.61,70.6z"/>
    <path class="fil6" d="M-30.59 10080.38c-0.21,-0.54 -0.42,-1.1 -0.66,-1.64 -11,-26.73 -36.78,-44 -65.69,-44l-0.07 0c-28.94,0.03 -54.72,17.36 -65.68,44.14 -0.18,0.46 -0.36,0.9 -0.53,1.36l-187.57 492.48c-11.74,30.83 3.72,65.33 34.54,77.07 30.83,11.77 65.33,-3.73 77.06,-34.54l32.07 -84.2 218.92 0 31.71 84.02c9.03,23.91 31.75,38.66 55.89,38.66 7,0 14.13,-1.25 21.07,-3.87 30.86,-11.64 46.44,-46.09 34.79,-76.95l-185.85 -492.53zm-131.03 331.21l64.48 -169.28 63.88 169.28 -128.36 0zm1715.39 -317.71l4.67 482.68c0,33.02 -18.4,59.74 -46.85,68.62 -27.89,8.7 -57.28,-2.18 -74.92,-27.7l-228.27 -330.53 0 307.02c0,32.99 -26.73,59.72 -59.72,59.72 -32.99,0 -59.72,-26.73 -59.72,-59.72l0 -498.58c0,-26.13 17,-49.24 41.95,-57.01 24.98,-7.76 52.07,1.57 66.92,23.08l239.54 346.86 -3.04 -313.28c-0.32,-32.98 26.16,-59.98 59.15,-60.3l0.59 0c32.71,-0.01 59.38,26.36 59.7,59.14l0 0zm-609.89 0.57l0 499.52c0,32.99 -26.73,59.72 -59.72,59.72 -32.99,0 -59.72,-26.73 -59.72,-59.72l0 -499.52c0,-32.99 26.73,-59.72 59.72,-59.72 32.99,0 59.72,26.74 59.72,59.72zm-1408.42 467.4c-8.16,9.73 -17.01,18.86 -26.32,27.14 -47.51,42.32 -108.65,64.71 -176.78,64.71 -170.64,0 -309.48,-138.84 -309.48,-309.48 0,-170.65 138.84,-309.48 309.48,-309.48 62.02,0 121.87,18.29 173.08,52.9 27.33,18.47 34.51,55.59 16.04,82.92 -18.46,27.32 -55.59,34.51 -82.92,16.04 -31.39,-21.21 -68.11,-32.42 -106.2,-32.42 -104.79,0 -190.05,85.26 -190.05,190.05 0,104.78 85.26,190.03 190.05,190.03 38.92,0 71.67,-11.59 97.35,-34.47 5.01,-4.46 9.8,-9.4 14.24,-14.7 21.2,-25.26 58.87,-28.57 84.14,-7.37 25.28,21.19 28.57,58.86 7.38,84.13l-0.01 0zm1160.1 -65.64c-16.29,91.25 -103.57,157.48 -207.53,157.48 -83.55,0 -165.17,-35.02 -218.31,-93.67 -22.15,-24.44 -20.29,-62.21 4.15,-84.35 24.43,-22.15 62.21,-20.29 84.35,4.14 30.88,34.08 79.41,54.43 129.81,54.43 49.71,0 84.77,-30.02 89.94,-59.04 6.99,-39.15 -44.68,-62.72 -67.23,-71.04 -77.38,-28.54 -146.09,-59.13 -148.98,-60.41 -2.87,-1.28 -5.64,-2.8 -8.29,-4.51 -51.77,-33.75 -78.44,-92.96 -69.61,-154.5 9.43,-65.66 57.48,-119.17 125.41,-139.64 135.09,-40.69 246.31,51.06 250.99,54.98 25.24,21.23 28.5,58.89 7.28,84.14 -21.14,25.15 -58.6,28.47 -83.85,7.52 -1.86,-1.49 -68.15,-53.93 -139.97,-32.28 -33.56,10.11 -40.3,32.91 -41.63,42.24 -0.99,6.88 -1.48,23.45 13.49,35.25 17.17,7.51 74.68,32.36 136.5,55.16 124.46,45.91 155.73,135.53 143.48,204.1l0 0zm1297.15 -461.48c-170.65,0 -309.48,138.84 -309.48,309.48 0,170.65 138.84,309.48 309.48,309.48 170.65,0 309.48,-138.84 309.48,-309.48 0,-170.64 -138.83,-309.48 -309.48,-309.48zm0 499.52c-104.79,0 -190.03,-85.24 -190.03,-190.03 0,-104.79 85.24,-190.04 190.03,-190.04 104.79,0 190.04,85.24 190.04,190.04 0,104.8 -85.25,190.03 -190.04,190.03z"/>
    <path class="fil7" d="M562.64 9307.17l50.58 92.5c1.5,2.73 3.75,4.99 6.5,6.49l92.49 50.59c11.33,6.19 11.33,22.48 0,28.67l-92.49 50.6c-2.74,1.49 -4.99,3.75 -6.5,6.5l-50.58 92.49c-6.2,11.33 -22.48,11.33 -28.68,0l-50.58 -92.49c-1.5,-2.74 -3.75,-5 -6.5,-6.5l-92.49 -50.59c-11.34,-6.19 -11.34,-22.48 0,-28.67l92.49 -50.59c2.74,-1.49 4.99,-3.75 6.5,-6.5l50.58 -92.49c6.2,-11.34 22.48,-11.34 28.68,-0.01z"/>
    <path class="fil6" d="M1277.72 9858.1l-160 53.32c-8.41,2.81 -15,9.41 -17.81,17.82l-53.33 159.99c-8.56,25.68 -44.89,25.68 -53.45,0l-53.33 -159.99c-2.8,-8.42 -9.41,-15.01 -17.82,-17.82l-159.99 -53.32c-25.68,-8.56 -25.68,-44.89 0,-53.45l159.99 -53.33c8.41,-2.8 15.01,-9.41 17.82,-17.82l53.33 -159.99c8.56,-25.68 44.89,-25.68 53.45,0l53.33 159.99c2.8,8.41 9.4,15.01 17.81,17.82l160 53.33c25.68,8.56 25.68,44.89 0,53.45z"/>
    <path class="fil8" d="M1825.07 12267.18l0 356.83c-329.74,229.34 -730.44,363.79 -1162.53,363.79 -432.1,0 -832.79,-134.45 -1162.54,-363.79l0 -356.83c0,-41.78 33.86,-75.64 75.64,-75.64l2173.79 0c41.78,0 75.64,33.87 75.64,75.64l0 0z"/>
    <path class="fil9" d="M-193.44 12799.9c-107.6,-49.86 -210.12,-108.81 -306.56,-175.89l0 -356.83c0,-41.78 33.86,-75.64 75.64,-75.64l230.92 0 0 608.36z"/>
    <path class="fil10" d="M1984.32 12299.04l0 7.96c0,41.78 -33.86,75.64 -75.64,75.64l-2492.29 0c-41.78,0 -75.64,-33.86 -75.64,-75.64l0 -7.96c0,-41.79 33.86,-75.65 75.64,-75.65l2492.29 0c41.78,0 75.64,33.86 75.64,75.64l0 0.01z"/>
    <path class="fil11" d="M2223.2 12147.75l0 7.96c0,41.78 -33.86,75.64 -75.64,75.64l-2970.05 0c-41.78,0 -75.64,-33.86 -75.64,-75.64l0 -7.96c0,-41.78 33.87,-75.65 75.64,-75.65l2970.05 0c41.78,0 75.64,33.87 75.64,75.65z"/>
    <path class="fil3" d="M101.56 12653.37l1121.94 0 0 197.29c0,35.02 -23.58,65.86 -57.52,74.49 -142.52,36.2 -291.02,57.39 -443.73,61.79 -19.84,0.57 -39.74,-57.54 -59.72,-57.54 -19.98,0 -39.89,58.1 -59.72,57.54 -152.96,-4.41 -301.69,-25.65 -444.41,-61.96 -33.54,-8.53 -56.85,-39 -56.85,-73.61l0 -198 0.01 0z"/>
    <path class="fil12" d="M1283.23 12653.37l0 238.21c-39.31,12.55 -79.13,23.94 -119.44,34.13l0 -212.62 -441.53 0 0 273.85c-19.84,0.57 -39.74,0.86 -59.72,0.86 -19.98,0 -39.89,-0.29 -59.72,-0.86l0 -273.85 -441.54 0 0 212.62c-40.3,-10.2 -80.12,-21.58 -119.44,-34.14l0 -238.2c0,-32.99 26.74,-59.72 59.72,-59.72l1121.95 0c32.99,0 59.72,26.73 59.72,59.72l0 0z"/>
   </g>
  </g>
  <g id="lock.svg_1">
   <path class="fil13" d="M650.39 10773.14c-218.83,0.24 -396.16,158.89 -396.43,354.67l0 218.26c0,15.07 13.66,27.28 30.5,27.28l121.97 0c16.85,0 30.5,-12.21 30.5,-27.28l0 -218.26c0,-105.47 95.57,-190.98 213.46,-190.98 117.88,0 213.45,85.51 213.45,190.98l0 218.26c0,15.07 13.66,27.28 30.5,27.28l121.97 0c16.84,0 30.5,-12.21 30.5,-27.28l0 -218.26c-0.27,-195.78 -177.6,-354.43 -396.42,-354.67z"/>
   <path class="fil14" d="M284.46 11318.79l731.85 0c84.21,0 152.47,61.07 152.47,136.41l0 491.08c0,75.34 -68.26,136.41 -152.47,136.41l-731.85 0c-84.21,0 -152.47,-61.07 -152.47,-136.41l0 -491.08c0,-75.34 68.26,-136.41 152.47,-136.41z"/>
   <path class="fil13" d="M802.85 11618.89c0.36,-75.34 -67.62,-136.67 -151.82,-136.98 -84.21,-0.32 -152.76,60.49 -153.11,135.83 -0.25,52.08 32.67,99.73 84.83,122.83l-23.54 147.32c-2.36,14.92 9.25,28.73 25.92,30.84 1.41,0.18 2.84,0.27 4.27,0.27l121.97 0c16.84,0.15 30.63,-11.94 30.8,-27.01 0.02,-1.39 -0.08,-2.78 -0.31,-4.15l-23.54 -147.32c51.53,-23.07 84.2,-70.08 84.53,-121.63z"/>
   <path class="fil15" d="M1016.31 11373.35l-121.97 0c-16.85,0 -30.5,-12.21 -30.5,-27.28l0 -218.26c0,-105.47 -95.57,-190.98 -213.45,-190.98 -117.89,0 -213.46,85.51 -213.46,190.98l0 218.26c0,15.07 -13.66,27.28 -30.5,27.28l-121.97 0c-16.84,0 -30.5,-12.21 -30.5,-27.28l0 -218.26c0,-195.88 177.49,-354.67 396.43,-354.67 218.93,0 396.42,158.79 396.42,354.67l0 218.26c0,15.07 -13.66,27.28 -30.5,27.28zm-91.48 -54.56l60.99 0 0 -190.98c0,-165.74 -150.18,-300.11 -335.43,-300.11 -185.26,0 -335.44,134.37 -335.44,300.11l0 190.98 60.99 0 0 -190.98c0,-135.61 122.87,-245.54 274.45,-245.54 151.57,0 274.44,109.93 274.44,245.54l0 190.98z"/>
   <path class="fil15" d="M1016.31 12082.69l-731.85 0c-84.21,0 -152.47,-61.07 -152.47,-136.41l0 -491.08c0,-75.34 68.26,-136.41 152.47,-136.41l731.85 0c84.21,0 152.47,61.07 152.47,136.41l0 491.08c0,75.34 -68.26,136.41 -152.47,136.41zm-731.85 -709.34c-50.52,0 -91.48,36.65 -91.48,81.85l0 491.08c0,45.2 40.96,81.85 91.48,81.85l731.85 0c50.53,0 91.48,-36.65 91.48,-81.85l0 -491.08c0,-45.2 -40.95,-81.85 -91.48,-81.85l-731.85 0z"/>
   <path class="fil15" d="M711.37 11919l-121.97 0c-16.85,0.15 -30.64,-11.94 -30.81,-27.01 -0.01,-1.39 0.09,-2.78 0.31,-4.15l23.55 -147.32c-75.47,-33.44 -106.34,-115.27 -68.97,-182.79 37.37,-67.51 128.84,-95.13 204.3,-61.7 75.46,33.44 106.33,115.27 68.96,182.78 -14.81,26.77 -39.04,48.45 -68.96,61.71l23.54 147.32c2.39,14.91 -9.18,28.74 -25.86,30.88 -1.35,0.17 -2.72,0.27 -4.09,0.28zm-86.84 -54.57l51.72 0 -21.96 -137.39c-2.16,-13.43 7.04,-26.24 21.59,-30.07 39.07,-9.85 66.04,-41.76 65.99,-78.08 0,-45.2 -40.96,-81.85 -91.48,-81.85 -50.53,0 -91.48,36.65 -91.48,81.85 -0.05,36.32 26.92,68.23 65.99,78.08 14.55,3.83 23.75,16.64 21.59,30.07l-21.96 137.39z"/>
   <g>
   </g>
   <g>
   </g>
   <g>
   </g>
   <g>
   </g>
   <g>
   </g>
   <g>
   </g>
   <g>
   </g>
   <g>
   </g>
   <g>
   </g>
   <g>
   </g>
   <g>
   </g>
   <g>
   </g>
   <g>
   </g>
   <g>
   </g>
   <g>
   </g>
  </g>
  <g id="casino.svg_2">
   <g>
    <path class="fil0" d="M-1375.88 10949.38c0,-1124.6 910.69,-2036.49 2034.84,-2038.42 1119.84,-1.92 2036.75,908.84 2041.98,2028.67 3.26,698.24 -344.56,1315.45 -877.11,1685.25 -50.85,35.31 -111.48,53.78 -173.37,53.78l-1979.46 0c-59.19,0 -117.24,-17.48 -165.94,-51.14 -532.22,-367.79 -880.94,-982.25 -880.94,-1678.14z"/>
    <path class="fil1" d="M2247.09 12016.36l152.65 0c-147.73,240.02 -343.81,447.1 -574.67,607.65 -104.78,72.88 -2220.32,72.86 -2325.11,-0.03 -264.99,-184.31 -484.15,-429.9 -636.97,-716.26l0 -170.05c0,-21.98 17.83,-39.81 39.82,-39.81l79.62 0c21.99,0 39.81,17.83 39.81,39.81l0 159.25c0,21.99 17.83,39.82 39.82,39.82l159.25 0c21.98,0 39.81,-17.83 39.81,-39.82l0 -398.13c0,-21.98 17.83,-39.81 39.81,-39.81l398.13 0c21.99,0 39.82,17.83 39.82,39.81l0 477.76c0,21.98 17.82,39.81 39.81,39.81l238.88 0c21.98,0 39.81,-17.82 39.81,-39.81l0 -398.13c0,-21.98 17.83,-39.81 39.81,-39.81l79.63 0c21.98,0 39.81,17.83 39.81,39.81l0 597.2 159.25 -0.01 0 -796.25c0,-21.99 17.83,-39.82 39.82,-39.82l159.25 0c21.98,0 39.81,17.83 39.81,39.82l0 597.19c0,21.99 17.83,39.81 39.81,39.81l159.26 0c21.98,0 39.81,-17.82 39.81,-39.81l0 -79.62c0,-21.99 17.83,-39.82 39.81,-39.82l238.88 0c21.98,0 39.81,17.83 39.81,39.81l0 278.69 238.88 0 0 -199.06c0,-21.99 17.83,-39.81 39.81,-39.81l477.76 0c21.98,0 39.81,-17.83 39.81,-39.82l0 -477.75c0,-21.99 17.83,-39.81 39.81,-39.81l159.26 0c21.98,0 39.81,17.82 39.81,39.81l0 557.38c0,21.98 17.83,39.81 39.81,39.81l0 0z"/>
    <path class="fil2" d="M1598.14 10630.87c-43.98,0 -79.63,35.65 -79.63,79.63l0 716.63 -1711.95 0 0 -716.63c0,-43.98 -35.65,-79.63 -79.63,-79.63 -43.97,0 -79.62,35.65 -79.62,79.63l0 1433.26c0,43.98 35.65,79.63 79.62,79.63 43.98,0 79.63,-35.65 79.63,-79.63l0 -238.87 1711.95 0 0 238.87c0,43.98 35.65,79.63 79.63,79.63 43.98,0 79.62,-35.65 79.62,-79.63l0 -1433.26c0,-43.98 -35.64,-79.63 -79.62,-79.63zm-1791.58 1114.76l0 -159.25 1711.95 0 0 159.26 -1711.95 -0.01z"/>
    <path class="fil3" d="M1012.9 11821.28l0 7.96c0,41.78 -33.87,75.65 -75.65,75.65l-581.27 0c-41.78,0 -75.64,-33.87 -75.64,-75.65l0 -7.96c0,-41.78 33.87,-75.64 75.64,-75.64l581.27 -0.01c41.78,0 75.65,33.87 75.65,75.65l0 0zm163.22 -394.15l-581.27 0c-41.78,0 -75.64,33.87 -75.64,75.64l0 7.97c0,41.78 33.87,75.64 75.64,75.64l581.27 0c41.78,0 75.65,-33.86 75.65,-75.64l0 -7.96c0,-41.78 -33.87,-75.65 -75.65,-75.65l0 0z"/>
    <path class="fil3" d="M1777.3 11220.1l-2229.53 0c-483.73,0 -875.88,-392.15 -875.88,-875.88 0,-483.74 392.15,-875.89 875.88,-875.89l2229.53 0.01c483.73,0 875.88,392.15 875.88,875.88 0,483.74 -392.15,875.89 -875.88,875.89l0 -0.01z"/>
    <path class="fil4" d="M1785.39 11220.1l-1592.51 0c-483.73,0 -875.89,-392.15 -875.89,-875.88 0,-483.74 392.16,-875.89 875.89,-875.89l1592.51 0.01c483.74,0 875.89,392.15 875.89,875.88 0,483.74 -392.15,875.89 -875.89,875.89l0 -0.01z"/>
    <path class="fil2" d="M1770.8 9414.07l-2216.53 0c-512.89,0 -930.16,417.26 -930.16,930.15 0,512.89 417.27,930.15 930.16,930.15l2216.54 0c512.88,0 930.15,-417.26 930.15,-930.15 0,-512.89 -417.27,-930.15 -930.16,-930.15l0 0zm0 1741.56l-2216.53 0c-447.41,0 -811.41,-363.99 -811.41,-811.41 0,-447.42 363.99,-811.41 811.41,-811.41l2216.54 0c447.41,0 811.41,363.99 811.41,811.41 0,447.41 -364,811.41 -811.42,811.41l0 0z"/>
    <path class="fil5" d="M1992.7 9915.29c-128.41,0 -243.83,56.74 -322.51,146.45 -15.51,-83.12 -88.87,-146.45 -176.14,-146.45l-1.17 0 -0.57 0.01c-47.86,0.46 -92.67,19.53 -126.18,53.7 -18.75,19.11 -32.7,41.68 -41.28,66.23l-28.75 -41.65c-33.44,-48.43 -88.56,-77.34 -147.43,-77.34 -18.03,0 -35.92,2.71 -53.17,8.07 -31.1,9.69 -57.98,27.08 -78.83,49.71 -32.8,-36.05 -80.06,-58.72 -132.52,-58.72 -65.41,0 -122.75,35.24 -154.03,87.72 -30,-23.4 -123.93,-87.73 -250.4,-87.73 -35.55,0 -70.84,5.2 -104.91,15.46 -112.93,34.03 -193.08,124.86 -209.18,237.04 -5.38,37.44 -3.25,74.41 5.62,109.19l-90.12 -238.77 -0.15 -0.4 -0.15 -0.41c-0.55,-1.43 -1.12,-2.87 -1.72,-4.3 -29.42,-71.49 -98.56,-117.8 -176.06,-117.8l-0.06 0c-77.66,0.08 -146.73,46.46 -176.15,118.17 -0.62,1.48 -1.2,2.97 -1.76,4.46l-129.81 340.8c-30.55,-22.27 -67.58,-34.41 -105.54,-34.41 -53.12,0 -103.16,23.33 -137.29,64 -0.97,1.16 -1.72,1.88 -2.09,2.2 -1.27,1.13 -4.83,4.3 -18,4.3 -38.93,0 -70.61,-31.68 -70.61,-70.6 0,-38.93 31.68,-70.6 70.61,-70.6 14.16,0 27.77,4.13 39.34,11.94 29.71,20.09 64.38,30.72 100.24,30.72 59.62,0 115.14,-29.48 148.5,-78.85 55.31,-81.85 33.71,-193.44 -48.13,-248.75 -71.03,-48 -154,-73.38 -239.95,-73.38 -236.51,0 -428.92,192.42 -428.92,428.92 0,236.5 192.41,428.91 428.92,428.91 85.4,0 163.75,-25 228.66,-72.64 19.68,26.71 46.97,48.24 80.21,60.91 20.43,7.79 41.91,11.76 63.77,11.76 73.85,0 141.14,-46.39 167.43,-115.41l2.77 -7.28 54.02 0.01 2.55 6.76c26.18,69.34 93.55,115.91 167.63,115.91 21.65,0 42.93,-3.9 63.26,-11.57 34.09,-12.85 62.83,-35.26 83.3,-64.49 69.3,48.47 155.13,76.04 242.07,76.04 93.22,0 178.09,-35.67 238.37,-94.26 30.31,56.08 89.65,94.26 157.74,94.26 52.33,0 99.48,-22.54 132.26,-58.43 32.78,35.89 79.94,58.43 132.26,58.43 77.47,0 143.61,-49.43 168.55,-118.4l21.15 30.63c35.62,51.5 93.16,82.21 153.98,82.21 18.54,0 36.99,-2.82 54.8,-8.37 61.85,-19.3 107.64,-69.27 124.08,-131.31 78.65,89.03 193.61,145.25 321.46,145.25 236.5,0 428.92,-192.41 428.92,-428.91 0.04,-236.52 -192.38,-428.94 -428.89,-428.94l0 0zm0 499.53c-38.92,0 -70.59,-31.68 -70.59,-70.6 0,-38.93 31.66,-70.6 70.59,-70.6 38.93,0 70.61,31.67 70.61,70.6 0.01,38.92 -31.67,70.6 -70.61,70.6z"/>
    <path class="fil6" d="M-30.59 10080.38c-0.21,-0.54 -0.42,-1.1 -0.66,-1.64 -11,-26.73 -36.78,-44 -65.69,-44l-0.07 0c-28.94,0.03 -54.72,17.36 -65.68,44.14 -0.18,0.46 -0.36,0.9 -0.53,1.36l-187.57 492.48c-11.74,30.83 3.72,65.33 34.54,77.07 30.83,11.77 65.33,-3.73 77.06,-34.54l32.07 -84.2 218.92 0 31.71 84.02c9.03,23.91 31.75,38.66 55.89,38.66 7,0 14.13,-1.25 21.07,-3.87 30.86,-11.64 46.44,-46.09 34.79,-76.95l-185.85 -492.53zm-131.03 331.21l64.48 -169.28 63.88 169.28 -128.36 0zm1715.39 -317.71l4.67 482.68c0,33.02 -18.4,59.74 -46.85,68.62 -27.89,8.7 -57.28,-2.18 -74.92,-27.7l-228.27 -330.53 0 307.02c0,32.99 -26.73,59.72 -59.72,59.72 -32.99,0 -59.72,-26.73 -59.72,-59.72l0 -498.58c0,-26.13 17,-49.24 41.95,-57.01 24.98,-7.76 52.07,1.57 66.92,23.08l239.54 346.86 -3.04 -313.28c-0.32,-32.98 26.16,-59.98 59.15,-60.3l0.59 0c32.71,-0.01 59.38,26.36 59.7,59.14l0 0zm-609.89 0.57l0 499.52c0,32.99 -26.73,59.72 -59.72,59.72 -32.99,0 -59.72,-26.73 -59.72,-59.72l0 -499.52c0,-32.99 26.73,-59.72 59.72,-59.72 32.99,0 59.72,26.74 59.72,59.72zm-1408.42 467.4c-8.16,9.73 -17.01,18.86 -26.32,27.14 -47.51,42.32 -108.65,64.71 -176.78,64.71 -170.64,0 -309.48,-138.84 -309.48,-309.48 0,-170.65 138.84,-309.48 309.48,-309.48 62.02,0 121.87,18.29 173.08,52.9 27.33,18.47 34.51,55.59 16.04,82.92 -18.46,27.32 -55.59,34.51 -82.92,16.04 -31.39,-21.21 -68.11,-32.42 -106.2,-32.42 -104.79,0 -190.05,85.26 -190.05,190.05 0,104.78 85.26,190.03 190.05,190.03 38.92,0 71.67,-11.59 97.35,-34.47 5.01,-4.46 9.8,-9.4 14.24,-14.7 21.2,-25.26 58.87,-28.57 84.14,-7.37 25.28,21.19 28.57,58.86 7.38,84.13l-0.01 0zm1160.1 -65.64c-16.29,91.25 -103.57,157.48 -207.53,157.48 -83.55,0 -165.17,-35.02 -218.31,-93.67 -22.15,-24.44 -20.29,-62.21 4.15,-84.35 24.43,-22.15 62.21,-20.29 84.35,4.14 30.88,34.08 79.41,54.43 129.81,54.43 49.71,0 84.77,-30.02 89.94,-59.04 6.99,-39.15 -44.68,-62.72 -67.23,-71.04 -77.38,-28.54 -146.09,-59.13 -148.98,-60.41 -2.87,-1.28 -5.64,-2.8 -8.29,-4.51 -51.77,-33.75 -78.44,-92.96 -69.61,-154.5 9.43,-65.66 57.48,-119.17 125.41,-139.64 135.09,-40.69 246.31,51.06 250.99,54.98 25.24,21.23 28.5,58.89 7.28,84.14 -21.14,25.15 -58.6,28.47 -83.85,7.52 -1.86,-1.49 -68.15,-53.93 -139.97,-32.28 -33.56,10.11 -40.3,32.91 -41.63,42.24 -0.99,6.88 -1.48,23.45 13.49,35.25 17.17,7.51 74.68,32.36 136.5,55.16 124.46,45.91 155.73,135.53 143.48,204.1l0 0zm1297.15 -461.48c-170.65,0 -309.48,138.84 -309.48,309.48 0,170.65 138.84,309.48 309.48,309.48 170.65,0 309.48,-138.84 309.48,-309.48 0,-170.64 -138.83,-309.48 -309.48,-309.48zm0 499.52c-104.79,0 -190.03,-85.24 -190.03,-190.03 0,-104.79 85.24,-190.04 190.03,-190.04 104.79,0 190.04,85.24 190.04,190.04 0,104.8 -85.25,190.03 -190.04,190.03z"/>
    <path class="fil7" d="M562.64 9307.17l50.58 92.5c1.5,2.73 3.75,4.99 6.5,6.49l92.49 50.59c11.33,6.19 11.33,22.48 0,28.67l-92.49 50.6c-2.74,1.49 -4.99,3.75 -6.5,6.5l-50.58 92.49c-6.2,11.33 -22.48,11.33 -28.68,0l-50.58 -92.49c-1.5,-2.74 -3.75,-5 -6.5,-6.5l-92.49 -50.59c-11.34,-6.19 -11.34,-22.48 0,-28.67l92.49 -50.59c2.74,-1.49 4.99,-3.75 6.5,-6.5l50.58 -92.49c6.2,-11.34 22.48,-11.34 28.68,-0.01z"/>
    <path class="fil6" d="M1277.72 9858.1l-160 53.32c-8.41,2.81 -15,9.41 -17.81,17.82l-53.33 159.99c-8.56,25.68 -44.89,25.68 -53.45,0l-53.33 -159.99c-2.8,-8.42 -9.41,-15.01 -17.82,-17.82l-159.99 -53.32c-25.68,-8.56 -25.68,-44.89 0,-53.45l159.99 -53.33c8.41,-2.8 15.01,-9.41 17.82,-17.82l53.33 -159.99c8.56,-25.68 44.89,-25.68 53.45,0l53.33 159.99c2.8,8.41 9.4,15.01 17.81,17.82l160 53.33c25.68,8.56 25.68,44.89 0,53.45z"/>
    <path class="fil8" d="M1825.07 12267.18l0 356.83c-329.74,229.34 -730.44,363.79 -1162.53,363.79 -432.1,0 -832.79,-134.45 -1162.54,-363.79l0 -356.83c0,-41.78 33.86,-75.64 75.64,-75.64l2173.79 0c41.78,0 75.64,33.87 75.64,75.64l0 0z"/>
    <path class="fil9" d="M-193.44 12799.9c-107.6,-49.86 -210.12,-108.81 -306.56,-175.89l0 -356.83c0,-41.78 33.86,-75.64 75.64,-75.64l230.92 0 0 608.36z"/>
    <path class="fil10" d="M1984.32 12299.04l0 7.96c0,41.78 -33.86,75.64 -75.64,75.64l-2492.29 0c-41.78,0 -75.64,-33.86 -75.64,-75.64l0 -7.96c0,-41.79 33.86,-75.65 75.64,-75.65l2492.29 0c41.78,0 75.64,33.86 75.64,75.64l0 0.01z"/>
    <path class="fil11" d="M2223.2 12147.75l0 7.96c0,41.78 -33.86,75.64 -75.64,75.64l-2970.05 0c-41.78,0 -75.64,-33.86 -75.64,-75.64l0 -7.96c0,-41.78 33.87,-75.65 75.64,-75.65l2970.05 0c41.78,0 75.64,33.87 75.64,75.65z"/>
    <path class="fil3" d="M101.56 12653.37l1121.94 0 0 197.29c0,35.02 -23.58,65.86 -57.52,74.49 -142.52,36.2 -291.02,57.39 -443.73,61.79 -19.84,0.57 -39.74,-57.54 -59.72,-57.54 -19.98,0 -39.89,58.1 -59.72,57.54 -152.96,-4.41 -301.69,-25.65 -444.41,-61.96 -33.54,-8.53 -56.85,-39 -56.85,-73.61l0 -198 0.01 0z"/>
    <path class="fil12" d="M1283.23 12653.37l0 238.21c-39.31,12.55 -79.13,23.94 -119.44,34.13l0 -212.62 -441.53 0 0 273.85c-19.84,0.57 -39.74,0.86 -59.72,0.86 -19.98,0 -39.89,-0.29 -59.72,-0.86l0 -273.85 -441.54 0 0 212.62c-40.3,-10.2 -80.12,-21.58 -119.44,-34.14l0 -238.2c0,-32.99 26.74,-59.72 59.72,-59.72l1121.95 0c32.99,0 59.72,26.73 59.72,59.72l0 0z"/>
   </g>
  </g>
  <g id="lock.svg_3">
   <path class="fil13" d="M650.39 10773.14c-218.83,0.24 -396.16,158.89 -396.43,354.67l0 218.26c0,15.07 13.66,27.28 30.5,27.28l121.97 0c16.85,0 30.5,-12.21 30.5,-27.28l0 -218.26c0,-105.47 95.57,-190.98 213.46,-190.98 117.88,0 213.45,85.51 213.45,190.98l0 218.26c0,15.07 13.66,27.28 30.5,27.28l121.97 0c16.84,0 30.5,-12.21 30.5,-27.28l0 -218.26c-0.27,-195.78 -177.6,-354.43 -396.42,-354.67z"/>
   <path class="fil14" d="M284.46 11318.79l731.85 0c84.21,0 152.47,61.07 152.47,136.41l0 491.08c0,75.34 -68.26,136.41 -152.47,136.41l-731.85 0c-84.21,0 -152.47,-61.07 -152.47,-136.41l0 -491.08c0,-75.34 68.26,-136.41 152.47,-136.41z"/>
   <path class="fil13" d="M802.85 11618.89c0.36,-75.34 -67.62,-136.67 -151.82,-136.98 -84.21,-0.32 -152.76,60.49 -153.11,135.83 -0.25,52.08 32.67,99.73 84.83,122.83l-23.54 147.32c-2.36,14.92 9.25,28.73 25.92,30.84 1.41,0.18 2.84,0.27 4.27,0.27l121.97 0c16.84,0.15 30.63,-11.94 30.8,-27.01 0.02,-1.39 -0.08,-2.78 -0.31,-4.15l-23.54 -147.32c51.53,-23.07 84.2,-70.08 84.53,-121.63z"/>
   <path class="fil15" d="M1016.31 11373.35l-121.97 0c-16.85,0 -30.5,-12.21 -30.5,-27.28l0 -218.26c0,-105.47 -95.57,-190.98 -213.45,-190.98 -117.89,0 -213.46,85.51 -213.46,190.98l0 218.26c0,15.07 -13.66,27.28 -30.5,27.28l-121.97 0c-16.84,0 -30.5,-12.21 -30.5,-27.28l0 -218.26c0,-195.88 177.49,-354.67 396.43,-354.67 218.93,0 396.42,158.79 396.42,354.67l0 218.26c0,15.07 -13.66,27.28 -30.5,27.28zm-91.48 -54.56l60.99 0 0 -190.98c0,-165.74 -150.18,-300.11 -335.43,-300.11 -185.26,0 -335.44,134.37 -335.44,300.11l0 190.98 60.99 0 0 -190.98c0,-135.61 122.87,-245.54 274.45,-245.54 151.57,0 274.44,109.93 274.44,245.54l0 190.98z"/>
   <path class="fil15" d="M1016.31 12082.69l-731.85 0c-84.21,0 -152.47,-61.07 -152.47,-136.41l0 -491.08c0,-75.34 68.26,-136.41 152.47,-136.41l731.85 0c84.21,0 152.47,61.07 152.47,136.41l0 491.08c0,75.34 -68.26,136.41 -152.47,136.41zm-731.85 -709.34c-50.52,0 -91.48,36.65 -91.48,81.85l0 491.08c0,45.2 40.96,81.85 91.48,81.85l731.85 0c50.53,0 91.48,-36.65 91.48,-81.85l0 -491.08c0,-45.2 -40.95,-81.85 -91.48,-81.85l-731.85 0z"/>
   <path class="fil15" d="M711.37 11919l-121.97 0c-16.85,0.15 -30.64,-11.94 -30.81,-27.01 -0.01,-1.39 0.09,-2.78 0.31,-4.15l23.55 -147.32c-75.47,-33.44 -106.34,-115.27 -68.97,-182.79 37.37,-67.51 128.84,-95.13 204.3,-61.7 75.46,33.44 106.33,115.27 68.96,182.78 -14.81,26.77 -39.04,48.45 -68.96,61.71l23.54 147.32c2.39,14.91 -9.18,28.74 -25.86,30.88 -1.35,0.17 -2.72,0.27 -4.09,0.28zm-86.84 -54.57l51.72 0 -21.96 -137.39c-2.16,-13.43 7.04,-26.24 21.59,-30.07 39.07,-9.85 66.04,-41.76 65.99,-78.08 0,-45.2 -40.96,-81.85 -91.48,-81.85 -50.53,0 -91.48,36.65 -91.48,81.85 -0.05,36.32 26.92,68.23 65.99,78.08 14.55,3.83 23.75,16.64 21.59,30.07l-21.96 137.39z"/>
   <g>
   </g>
   <g>
   </g>
   <g>
   </g>
   <g>
   </g>
   <g>
   </g>
   <g>
   </g>
   <g>
   </g>
   <g>
   </g>
   <g>
   </g>
   <g>
   </g>
   <g>
   </g>
   <g>
   </g>
   <g>
   </g>
   <g>
   </g>
   <g>
   </g>
  </g>
  <g id="casino.svg_4">
   <g>
    <path class="fil0" d="M72.53 2135.42c0,-1124.6 910.69,-2036.49 2034.84,-2038.42 1119.84,-1.92 2036.75,908.84 2041.98,2028.67 3.26,698.24 -344.56,1315.45 -877.11,1685.25 -50.85,35.31 -111.48,53.78 -173.37,53.78l-1979.46 0c-59.19,0 -117.24,-17.48 -165.94,-51.14 -532.22,-367.79 -880.94,-982.25 -880.94,-1678.14z"/>
    <path class="fil1" d="M3695.5 3202.4l152.65 0c-147.73,240.02 -343.81,447.1 -574.67,607.65 -104.78,72.88 -2220.32,72.86 -2325.11,-0.03 -264.99,-184.31 -484.15,-429.9 -636.97,-716.26l0 -170.05c0,-21.98 17.83,-39.81 39.82,-39.81l79.62 0c21.99,0 39.81,17.83 39.81,39.81l0 159.25c0,21.99 17.83,39.82 39.82,39.82l159.25 0c21.98,0 39.81,-17.83 39.81,-39.82l0 -398.13c0,-21.98 17.83,-39.81 39.81,-39.81l398.13 0c21.99,0 39.82,17.83 39.82,39.81l0 477.76c0,21.98 17.82,39.81 39.81,39.81l238.88 0c21.98,0 39.81,-17.82 39.81,-39.81l0 -398.13c0,-21.98 17.83,-39.81 39.81,-39.81l79.63 0c21.98,0 39.81,17.83 39.81,39.81l0 597.2 159.25 -0.01 0 -796.25c0,-21.99 17.83,-39.82 39.82,-39.82l159.25 0c21.98,0 39.81,17.83 39.81,39.82l0 597.19c0,21.99 17.83,39.81 39.81,39.81l159.26 0c21.98,0 39.81,-17.82 39.81,-39.81l0 -79.62c0,-21.99 17.83,-39.82 39.81,-39.82l238.88 0c21.98,0 39.81,17.83 39.81,39.81l0 278.69 238.88 0 0 -199.06c0,-21.99 17.83,-39.81 39.81,-39.81l477.76 0c21.98,0 39.81,-17.83 39.81,-39.82l0 -477.75c0,-21.99 17.83,-39.81 39.81,-39.81l159.26 0c21.98,0 39.81,17.82 39.81,39.81l0 557.38c0,21.98 17.83,39.81 39.81,39.81l0 0z"/>
    <path class="fil2" d="M3046.55 1816.91c-43.98,0 -79.63,35.65 -79.63,79.63l0 716.63 -1711.95 0 0 -716.63c0,-43.98 -35.65,-79.63 -79.63,-79.63 -43.97,0 -79.62,35.65 -79.62,79.63l0 1433.26c0,43.98 35.65,79.63 79.62,79.63 43.98,0 79.63,-35.65 79.63,-79.63l0 -238.87 1711.95 0 0 238.87c0,43.98 35.65,79.63 79.63,79.63 43.98,0 79.62,-35.65 79.62,-79.63l0 -1433.26c0,-43.98 -35.64,-79.63 -79.62,-79.63zm-1791.58 1114.76l0 -159.25 1711.95 0 0 159.26 -1711.95 -0.01z"/>
    <path class="fil3" d="M2461.31 3007.32l0 7.96c0,41.78 -33.87,75.65 -75.65,75.65l-581.27 0c-41.78,0 -75.64,-33.87 -75.64,-75.65l0 -7.96c0,-41.78 33.87,-75.64 75.64,-75.64l581.27 -0.01c41.78,0 75.65,33.87 75.65,75.65l0 0zm163.22 -394.15l-581.27 0c-41.78,0 -75.64,33.87 -75.64,75.64l0 7.97c0,41.78 33.87,75.64 75.64,75.64l581.27 0c41.78,0 75.65,-33.86 75.65,-75.64l0 -7.96c0,-41.78 -33.87,-75.65 -75.65,-75.65l0 0z"/>
    <path class="fil3" d="M3225.71 2406.14l-2229.53 0c-483.73,0 -875.88,-392.15 -875.88,-875.88 0,-483.74 392.15,-875.89 875.88,-875.89l2229.53 0.01c483.73,0 875.88,392.15 875.88,875.88 0,483.74 -392.15,875.89 -875.88,875.89l0 -0.01z"/>
    <path class="fil4" d="M3233.8 2406.14l-1592.51 0c-483.73,0 -875.89,-392.15 -875.89,-875.88 0,-483.74 392.16,-875.89 875.89,-875.89l1592.51 0.01c483.74,0 875.89,392.15 875.89,875.88 0,483.74 -392.15,875.89 -875.89,875.89l0 -0.01z"/>
    <path class="fil2" d="M3219.21 600.11l-2216.53 0c-512.89,0 -930.16,417.26 -930.16,930.15 0,512.89 417.27,930.15 930.16,930.15l2216.54 0c512.88,0 930.15,-417.26 930.15,-930.15 0,-512.89 -417.27,-930.15 -930.16,-930.15l0 0zm0 1741.56l-2216.53 0c-447.41,0 -811.41,-363.99 -811.41,-811.41 0,-447.42 363.99,-811.41 811.41,-811.41l2216.54 0c447.41,0 811.41,363.99 811.41,811.41 0,447.41 -364,811.41 -811.42,811.41l0 0z"/>
    <path class="fil5" d="M3441.11 1101.33c-128.41,0 -243.83,56.74 -322.51,146.45 -15.51,-83.12 -88.87,-146.45 -176.14,-146.45l-1.17 0 -0.57 0.01c-47.86,0.46 -92.67,19.53 -126.18,53.7 -18.75,19.11 -32.7,41.68 -41.28,66.23l-28.75 -41.65c-33.44,-48.43 -88.56,-77.34 -147.43,-77.34 -18.03,0 -35.92,2.71 -53.17,8.07 -31.1,9.69 -57.98,27.08 -78.83,49.71 -32.8,-36.05 -80.06,-58.72 -132.52,-58.72 -65.41,0 -122.75,35.24 -154.03,87.72 -30,-23.4 -123.93,-87.73 -250.4,-87.73 -35.55,0 -70.84,5.2 -104.91,15.46 -112.93,34.03 -193.08,124.86 -209.18,237.04 -5.38,37.44 -3.25,74.41 5.62,109.19l-90.12 -238.77 -0.15 -0.4 -0.15 -0.41c-0.55,-1.43 -1.12,-2.87 -1.72,-4.3 -29.42,-71.49 -98.56,-117.8 -176.06,-117.8l-0.06 0c-77.66,0.08 -146.73,46.46 -176.15,118.17 -0.62,1.48 -1.2,2.97 -1.76,4.46l-129.81 340.8c-30.55,-22.27 -67.58,-34.41 -105.54,-34.41 -53.12,0 -103.16,23.33 -137.29,64 -0.97,1.16 -1.72,1.88 -2.09,2.2 -1.27,1.13 -4.83,4.3 -18,4.3 -38.93,0 -70.61,-31.68 -70.61,-70.6 0,-38.93 31.68,-70.6 70.61,-70.6 14.16,0 27.77,4.13 39.34,11.94 29.71,20.09 64.38,30.72 100.24,30.72 59.62,0 115.14,-29.48 148.5,-78.85 55.31,-81.85 33.71,-193.44 -48.13,-248.75 -71.03,-48 -154,-73.38 -239.95,-73.38 -236.51,0 -428.92,192.42 -428.92,428.92 0,236.5 192.41,428.91 428.92,428.91 85.4,0 163.75,-25 228.66,-72.64 19.68,26.71 46.97,48.24 80.21,60.91 20.43,7.79 41.91,11.76 63.77,11.76 73.85,0 141.14,-46.39 167.43,-115.41l2.77 -7.28 54.02 0.01 2.55 6.76c26.18,69.34 93.55,115.91 167.63,115.91 21.65,0 42.93,-3.9 63.26,-11.57 34.09,-12.85 62.83,-35.26 83.3,-64.49 69.3,48.47 155.13,76.04 242.07,76.04 93.22,0 178.09,-35.67 238.37,-94.26 30.31,56.08 89.65,94.26 157.74,94.26 52.33,0 99.48,-22.54 132.26,-58.43 32.78,35.89 79.94,58.43 132.26,58.43 77.47,0 143.61,-49.43 168.55,-118.4l21.15 30.63c35.62,51.5 93.16,82.21 153.98,82.21 18.54,0 36.99,-2.82 54.8,-8.37 61.85,-19.3 107.64,-69.27 124.08,-131.31 78.65,89.03 193.61,145.25 321.46,145.25 236.5,0 428.92,-192.41 428.92,-428.91 0.04,-236.52 -192.38,-428.94 -428.89,-428.94l0 0zm0 499.53c-38.92,0 -70.59,-31.68 -70.59,-70.6 0,-38.93 31.66,-70.6 70.59,-70.6 38.93,0 70.61,31.67 70.61,70.6 0.01,38.92 -31.67,70.6 -70.61,70.6z"/>
    <path class="fil6" d="M1417.82 1266.42c-0.21,-0.54 -0.42,-1.1 -0.66,-1.64 -11,-26.73 -36.78,-44 -65.69,-44l-0.07 0c-28.94,0.03 -54.72,17.36 -65.68,44.14 -0.18,0.46 -0.36,0.9 -0.53,1.36l-187.57 492.48c-11.74,30.83 3.72,65.33 34.54,77.07 30.83,11.77 65.33,-3.73 77.06,-34.54l32.07 -84.2 218.92 0 31.71 84.02c9.03,23.91 31.75,38.66 55.89,38.66 7,0 14.13,-1.25 21.07,-3.87 30.86,-11.64 46.44,-46.09 34.79,-76.95l-185.85 -492.53zm-131.03 331.21l64.48 -169.28 63.88 169.28 -128.36 0zm1715.39 -317.71l4.67 482.68c0,33.02 -18.4,59.74 -46.85,68.62 -27.89,8.7 -57.28,-2.18 -74.92,-27.7l-228.27 -330.53 0 307.02c0,32.99 -26.73,59.72 -59.72,59.72 -32.99,0 -59.72,-26.73 -59.72,-59.72l0 -498.58c0,-26.13 17,-49.24 41.95,-57.01 24.98,-7.76 52.07,1.57 66.92,23.08l239.54 346.86 -3.04 -313.28c-0.32,-32.98 26.16,-59.98 59.15,-60.3l0.59 0c32.71,-0.01 59.38,26.36 59.7,59.14l0 0zm-609.89 0.57l0 499.52c0,32.99 -26.73,59.72 -59.72,59.72 -32.99,0 -59.72,-26.73 -59.72,-59.72l0 -499.52c0,-32.99 26.73,-59.72 59.72,-59.72 32.99,0 59.72,26.74 59.72,59.72zm-1408.42 467.4c-8.16,9.73 -17.01,18.86 -26.32,27.14 -47.51,42.32 -108.65,64.71 -176.78,64.71 -170.64,0 -309.48,-138.84 -309.48,-309.48 0,-170.65 138.84,-309.48 309.48,-309.48 62.02,0 121.87,18.29 173.08,52.9 27.33,18.47 34.51,55.59 16.04,82.92 -18.46,27.32 -55.59,34.51 -82.92,16.04 -31.39,-21.21 -68.11,-32.42 -106.2,-32.42 -104.79,0 -190.05,85.26 -190.05,190.05 0,104.78 85.26,190.03 190.05,190.03 38.92,0 71.67,-11.59 97.35,-34.47 5.01,-4.46 9.8,-9.4 14.24,-14.7 21.2,-25.26 58.87,-28.57 84.14,-7.37 25.28,21.19 28.57,58.86 7.38,84.13l-0.01 0zm1160.1 -65.64c-16.29,91.25 -103.57,157.48 -207.53,157.48 -83.55,0 -165.17,-35.02 -218.31,-93.67 -22.15,-24.44 -20.29,-62.21 4.15,-84.35 24.43,-22.15 62.21,-20.29 84.35,4.14 30.88,34.08 79.41,54.43 129.81,54.43 49.71,0 84.77,-30.02 89.94,-59.04 6.99,-39.15 -44.68,-62.72 -67.23,-71.04 -77.38,-28.54 -146.09,-59.13 -148.98,-60.41 -2.87,-1.28 -5.64,-2.8 -8.29,-4.51 -51.77,-33.75 -78.44,-92.96 -69.61,-154.5 9.43,-65.66 57.48,-119.17 125.41,-139.64 135.09,-40.69 246.31,51.06 250.99,54.98 25.24,21.23 28.5,58.89 7.28,84.14 -21.14,25.15 -58.6,28.47 -83.85,7.52 -1.86,-1.49 -68.15,-53.93 -139.97,-32.28 -33.56,10.11 -40.3,32.91 -41.63,42.24 -0.99,6.88 -1.48,23.45 13.49,35.25 17.17,7.51 74.68,32.36 136.5,55.16 124.46,45.91 155.73,135.53 143.48,204.1l0 0zm1297.15 -461.48c-170.65,0 -309.48,138.84 -309.48,309.48 0,170.65 138.84,309.48 309.48,309.48 170.65,0 309.48,-138.84 309.48,-309.48 0,-170.64 -138.83,-309.48 -309.48,-309.48zm0 499.52c-104.79,0 -190.03,-85.24 -190.03,-190.03 0,-104.79 85.24,-190.04 190.03,-190.04 104.79,0 190.04,85.24 190.04,190.04 0,104.8 -85.25,190.03 -190.04,190.03z"/>
    <path class="fil7" d="M2011.05 493.21l50.58 92.5c1.5,2.73 3.75,4.99 6.5,6.49l92.49 50.59c11.33,6.19 11.33,22.48 0,28.67l-92.49 50.6c-2.74,1.49 -4.99,3.75 -6.5,6.5l-50.58 92.49c-6.2,11.33 -22.48,11.33 -28.68,0l-50.58 -92.49c-1.5,-2.74 -3.75,-5 -6.5,-6.5l-92.49 -50.59c-11.34,-6.19 -11.34,-22.48 0,-28.67l92.49 -50.59c2.74,-1.49 4.99,-3.75 6.5,-6.5l50.58 -92.49c6.2,-11.34 22.48,-11.34 28.68,-0.01z"/>
    <path class="fil6" d="M2726.13 1044.14l-160 53.32c-8.41,2.81 -15,9.41 -17.81,17.82l-53.33 159.99c-8.56,25.68 -44.89,25.68 -53.45,0l-53.33 -159.99c-2.8,-8.42 -9.41,-15.01 -17.82,-17.82l-159.99 -53.32c-25.68,-8.56 -25.68,-44.89 0,-53.45l159.99 -53.33c8.41,-2.8 15.01,-9.41 17.82,-17.82l53.33 -159.99c8.56,-25.68 44.89,-25.68 53.45,0l53.33 159.99c2.8,8.41 9.4,15.01 17.81,17.82l160 53.33c25.68,8.56 25.68,44.89 0,53.45z"/>
    <path class="fil8" d="M3273.48 3453.22l0 356.83c-329.74,229.34 -730.44,363.79 -1162.53,363.79 -432.1,0 -832.79,-134.45 -1162.54,-363.79l0 -356.83c0,-41.78 33.86,-75.64 75.64,-75.64l2173.79 0c41.78,0 75.64,33.87 75.64,75.64l0 0z"/>
    <path class="fil9" d="M1254.97 3985.94c-107.6,-49.86 -210.12,-108.81 -306.56,-175.89l0 -356.83c0,-41.78 33.86,-75.64 75.64,-75.64l230.92 0 0 608.36z"/>
    <path class="fil10" d="M3432.73 3485.08l0 7.96c0,41.78 -33.86,75.64 -75.64,75.64l-2492.29 0c-41.78,0 -75.64,-33.86 -75.64,-75.64l0 -7.96c0,-41.79 33.86,-75.65 75.64,-75.65l2492.29 0c41.78,0 75.64,33.86 75.64,75.64l0 0.01z"/>
    <path class="fil11" d="M3671.61 3333.79l0 7.96c0,41.78 -33.86,75.64 -75.64,75.64l-2970.05 0c-41.78,0 -75.64,-33.86 -75.64,-75.64l0 -7.96c0,-41.78 33.87,-75.65 75.64,-75.65l2970.05 0c41.78,0 75.64,33.87 75.64,75.65z"/>
    <path class="fil3" d="M1549.97 3839.41l1121.94 0 0 197.29c0,35.02 -23.58,65.86 -57.52,74.49 -142.52,36.2 -291.02,57.39 -443.73,61.79 -19.84,0.57 -39.74,-57.54 -59.72,-57.54 -19.98,0 -39.89,58.1 -59.72,57.54 -152.96,-4.41 -301.69,-25.65 -444.41,-61.96 -33.54,-8.53 -56.85,-39 -56.85,-73.61l0 -198 0.01 0z"/>
    <path class="fil12" d="M2731.64 3839.41l0 238.21c-39.31,12.55 -79.13,23.94 -119.44,34.13l0 -212.62 -441.53 0 0 273.85c-19.84,0.57 -39.74,0.86 -59.72,0.86 -19.98,0 -39.89,-0.29 -59.72,-0.86l0 -273.85 -441.54 0 0 212.62c-40.3,-10.2 -80.12,-21.58 -119.44,-34.14l0 -238.2c0,-32.99 26.74,-59.72 59.72,-59.72l1121.95 0c32.99,0 59.72,26.73 59.72,59.72l0 0z"/>
   </g>
  </g>
  <g id="lock.svg_5">
   <path class="fil13" d="M2112.24 803.32c-449.26,0.49 -813.32,326.21 -813.87,728.16l0 448.09c0,30.93 28.03,56.01 62.61,56.01l250.42 0c34.57,0 62.61,-25.08 62.61,-56.01l0 -448.09c-0.01,-216.55 196.2,-392.09 438.23,-392.09 242.03,0 438.24,175.54 438.24,392.09l0 448.09c0,30.93 28.03,56.01 62.61,56.01l250.41 0c34.58,0 62.61,-25.08 62.61,-56.01l0 -448.09c-0.55,-401.95 -364.61,-727.67 -813.87,-728.16z"/>
   <path class="fil14" d="M1360.98 1923.56l1502.52 0c172.88,0 313.03,125.38 313.03,280.05l0 1008.22c0,154.67 -140.15,280.06 -313.03,280.06l-1502.52 0c-172.88,0 -313.03,-125.39 -313.03,-280.06l0 -1008.21c0,-154.68 140.15,-280.06 313.03,-280.06z"/>
   <path class="fil13" d="M2425.27 2539.69c0.72,-154.67 -138.83,-280.59 -311.71,-281.24 -172.88,-0.65 -313.62,124.2 -314.34,278.88 -0.51,106.91 67.06,204.75 174.16,252.17l-48.33 302.47c-4.84,30.62 18.99,58.97 53.22,63.3 2.9,0.36 5.83,0.55 8.76,0.55l250.42 0c34.57,0.31 62.89,-24.51 63.23,-55.44 0.03,-2.85 -0.17,-5.7 -0.63,-8.52l-48.33 -302.47c105.78,-47.36 172.86,-143.87 173.55,-249.7z"/>
   <path class="fil15" d="M2863.5 2035.58l-250.42 0c-34.57,0 -62.61,-25.08 -62.61,-56.01l0 -448.09c0.01,-216.55 -196.2,-392.09 -438.23,-392.09 -242.03,0 -438.24,175.54 -438.24,392.09l0 448.09c0,30.93 -28.03,56.01 -62.61,56.01l-250.41 0c-34.58,0 -62.61,-25.08 -62.61,-56.01l0 -448.09c0,-402.16 364.38,-728.16 813.87,-728.16 449.49,0 813.87,326 813.87,728.16l0 448.09c0,30.93 -28.03,56.01 -62.61,56.01zm-187.81 -112.02l125.21 0 0 -392.09c0,-340.28 -308.33,-616.13 -688.66,-616.13 -380.33,0 -688.66,275.85 -688.66,616.14l0 392.08 125.21 0 0 -392.08c0,-278.41 252.27,-504.11 563.45,-504.11 311.18,0 563.45,225.7 563.45,504.11l0 392.08z"/>
   <path class="fil15" d="M2863.5 3491.89l-1502.52 0c-172.88,0 -313.03,-125.39 -313.03,-280.06l0 -1008.21c0,-154.67 140.15,-280.06 313.03,-280.06l1502.52 0c172.88,0 313.03,125.39 313.03,280.06l0 1008.21c0,154.67 -140.15,280.06 -313.03,280.06zm-1502.52 -1456.31c-103.73,0 -187.82,75.23 -187.82,168.04l0 1008.21c0,92.8 84.09,168.04 187.82,168.04l1502.52 0c103.73,0 187.82,-75.24 187.82,-168.04l0 -1008.21c0,-92.81 -84.09,-168.04 -187.82,-168.04l-1502.52 0z"/>
   <path class="fil15" d="M2237.45 3155.82l-250.42 0c-34.58,0.31 -62.89,-24.51 -63.24,-55.44 -0.03,-2.85 0.18,-5.7 0.63,-8.52l48.34 -302.47c-154.93,-68.64 -218.32,-236.65 -141.59,-375.26 76.72,-138.61 264.51,-195.32 419.43,-126.68 154.93,68.65 218.31,236.65 141.59,375.26 -30.42,54.96 -80.16,99.46 -141.59,126.68l48.33 302.47c4.92,30.61 -18.85,59 -53.08,63.4 -2.78,0.35 -5.59,0.54 -8.4,0.56zm-178.3 -112.02l106.18 0 -45.07 -282.08c-4.44,-27.57 14.45,-53.87 44.32,-61.73 80.21,-20.23 135.58,-85.74 135.48,-160.3 0,-92.81 -84.09,-168.04 -187.81,-168.04 -103.73,0 -187.82,75.23 -187.82,168.04 -0.1,74.56 55.27,140.07 135.48,160.3 29.87,7.86 48.76,34.16 44.32,61.73l-45.08 282.08z"/>
   <g>
   </g>
   <g>
   </g>
   <g>
   </g>
   <g>
   </g>
   <g>
   </g>
   <g>
   </g>
   <g>
   </g>
   <g>
   </g>
   <g>
   </g>
   <g>
   </g>
   <g>
   </g>
   <g>
   </g>
   <g>
   </g>
   <g>
   </g>
   <g>
   </g>
  </g>
 </g>
</svg>
