<svg height="512" viewBox="0 0 128 128" width="512" xmlns="http://www.w3.org/2000/svg"><g><g><path d="m126.25 64a62.431 62.431 0 0 1 -1.51 13.69 61.617 61.617 0 0 1 -8.12 19.57 62.324 62.324 0 0 1 -19.36 19.36 61.617 61.617 0 0 1 -19.57 8.12 62.813 62.813 0 0 1 -27.38 0 61.617 61.617 0 0 1 -19.57-8.12 62.324 62.324 0 0 1 -19.36-19.36 61.617 61.617 0 0 1 -8.12-19.57 62.859 62.859 0 0 1 0-27.39 62.336 62.336 0 0 1 47.05-47.04 62.813 62.813 0 0 1 27.38 0 62.362 62.362 0 0 1 47.05 47.04 62.455 62.455 0 0 1 1.51 13.7z" fill="#ffc839"/><circle cx="64" cy="63.997" fill="#fcf9f0" r="37.25"/><path d="m78.849 72.077a10.5 10.5 0 0 0 0-14.849l-14.849-14.849-14.849 14.849a10.5 10.5 0 0 0 10.209 17.542 26.43 26.43 0 0 1 -3.8 10.851h16.883a26.416 26.416 0 0 1 -3.8-10.851 10.489 10.489 0 0 0 10.206-2.693z" fill="#2d3c6b"/><g fill="#ff9100"><path d="m77.69 3.26-3.4 12.49h-20.58l-3.4-12.49a62.813 62.813 0 0 1 27.38 0z"/><path d="m77.69 124.74a62.813 62.813 0 0 1 -27.38 0l3.4-12.5h20.58z"/><path d="m116.62 30.74-11.23 6.42-14.55-14.56 6.41-11.23a62.282 62.282 0 0 1 19.37 19.37z"/><path d="m37.16 105.39-6.42 11.23a62.324 62.324 0 0 1 -19.36-19.36l11.23-6.42z"/><path d="m126.25 64a62.431 62.431 0 0 1 -1.51 13.69l-12.49-3.4v-20.58l12.49-3.41a62.455 62.455 0 0 1 1.51 13.7z"/><path d="m15.75 53.71v20.58l-12.49 3.4a62.859 62.859 0 0 1 0-27.39z"/><path d="m116.62 97.26a62.324 62.324 0 0 1 -19.36 19.36l-6.42-11.23 14.55-14.55z"/><path d="m37.16 22.6-14.55 14.56-11.23-6.42a62.282 62.282 0 0 1 19.37-19.37z"/></g></g><g><path d="m126.447 49.915a63.426 63.426 0 0 0 -8.347-20.109 64.4 64.4 0 0 0 -19.914-19.914 63.371 63.371 0 0 0 -20.113-8.339 64.866 64.866 0 0 0 -28.146 0 63.386 63.386 0 0 0 -20.113 8.34 64.386 64.386 0 0 0 -19.914 19.907 63.44 63.44 0 0 0 -8.348 20.117 64.621 64.621 0 0 0 0 28.155 63.212 63.212 0 0 0 8.348 20.122 64.392 64.392 0 0 0 19.9 19.9 63.209 63.209 0 0 0 20.125 8.349 64.56 64.56 0 0 0 28.146 0 63.231 63.231 0 0 0 20.129-8.343 64.385 64.385 0 0 0 19.9-19.9 63.209 63.209 0 0 0 8.351-20.126 64.61 64.61 0 0 0 0-28.157zm-12.447 23.035v-17.906l9.388-2.556a59.924 59.924 0 0 1 0 23.017zm.135-42.777-8.446 4.832-12.664-12.661 4.837-8.455a60.942 60.942 0 0 1 16.27 16.284zm-50.135-26.673a60.939 60.939 0 0 1 11.507 1.116l-2.554 9.384h-17.906l-2.554-9.385a61.013 61.013 0 0 1 11.507-1.115zm-33.824 10.365 4.824 8.428-12.661 12.66-8.439-4.828a60.886 60.886 0 0 1 16.276-16.26zm-25.561 61.635a59.966 59.966 0 0 1 0-23.015l9.393 2.556v17.9zm47.878 47.879 2.554-9.393h17.906l2.555 9.393a61.469 61.469 0 0 1 -23.015.004zm45.379-9.279-4.83-8.443 12.658-12.657 8.432 4.824a60.919 60.919 0 0 1 -16.26 16.276zm18.151-19.232-9.742-5.568a1.747 1.747 0 0 0 -2.107.281l-14.552 14.547a1.748 1.748 0 0 0 -.282 2.106l5.581 9.756a59.661 59.661 0 0 1 -15.991 6.642l-2.952-10.851a1.749 1.749 0 0 0 -1.688-1.291h-20.58a1.75 1.75 0 0 0 -1.689 1.291l-2.951 10.851a59.678 59.678 0 0 1 -15.953-6.618l5.568-9.728a1.748 1.748 0 0 0 -.282-2.106l-8.994-9a1.75 1.75 0 1 0 -2.475 2.474l8.049 8.05-4.818 8.417a60.936 60.936 0 0 1 -16.265-16.252l4.971-2.845a1.75 1.75 0 1 0 -1.739-3.037l-5.121 2.932a59.665 59.665 0 0 1 -6.644-15.992l10.85-2.951a1.75 1.75 0 0 0 1.29-1.689v-20.58a1.749 1.749 0 0 0 -1.29-1.688l-10.849-2.951a59.882 59.882 0 0 1 6.644-15.992l9.75 5.579a1.746 1.746 0 0 0 2.106-.281l14.552-14.552a1.748 1.748 0 0 0 .282-2.106l-5.574-9.738a59.864 59.864 0 0 1 15.942-6.61l2.951 10.842a1.75 1.75 0 0 0 1.689 1.29h20.58a1.748 1.748 0 0 0 1.688-1.29l2.952-10.842a59.845 59.845 0 0 1 15.98 6.632l-5.587 9.766a1.748 1.748 0 0 0 .282 2.106l14.552 14.552a1.75 1.75 0 0 0 2.107.282l9.756-5.58a59.927 59.927 0 0 1 6.612 15.939l-10.844 2.953a1.75 1.75 0 0 0 -1.291 1.688v20.58a1.751 1.751 0 0 0 1.291 1.689l10.845 2.951a59.679 59.679 0 0 1 -6.61 15.942z"/><path d="m98 48.672a1.749 1.749 0 0 0 -.981 2.272 35.5 35.5 0 1 1 -33.019-22.444 1.75 1.75 0 0 0 0-3.5 38.995 38.995 0 1 0 36.268 24.656 1.75 1.75 0 0 0 -2.268-.984z"/><path d="m80.113 32.369a35.652 35.652 0 0 1 6.932 4.647 1.75 1.75 0 0 0 2.275-2.661 39.119 39.119 0 0 0 -7.613-5.1 1.75 1.75 0 1 0 -1.594 3.115z"/><path d="m62.763 41.142-14.849 14.848a12.243 12.243 0 0 0 9.319 20.887 24.754 24.754 0 0 1 -3.161 7.823 1.749 1.749 0 0 0 1.485 2.676h16.886a1.749 1.749 0 0 0 1.485-2.676 24.754 24.754 0 0 1 -3.161-7.818 12.243 12.243 0 0 0 9.319-20.892l-14.849-14.848a1.748 1.748 0 0 0 -2.474 0zm14.849 29.7a8.786 8.786 0 0 1 -8.51 2.243 1.749 1.749 0 0 0 -2.2 1.895 28.486 28.486 0 0 0 2.588 8.893h-10.98a28.486 28.486 0 0 0 2.59-8.895 1.75 1.75 0 0 0 -2.2-1.895 8.746 8.746 0 0 1 -8.509-14.618l13.609-13.612 13.612 13.612a8.762 8.762 0 0 1 0 12.375z"/></g></g></svg>