<?xml version="1.0" encoding="utf-8"?>
<!-- Generator: Adobe Illustrator 23.0.1, SVG Export Plug-In . SVG Version: 6.00 Build 0)  -->
<svg xmlns="http://www.w3.org/2000/svg" xmlns:xlink="http://www.w3.org/1999/xlink" version="1.1" id="Layer_1" x="0px" y="0px" viewBox="0 0 64 64" style="enable-background:new 0 0 64 64;" xml:space="preserve" width="512" height="512">
<style type="text/css">
	.st0{fill:#FFE885;}
	.st1{fill:#F0DC78;}
	.st2{fill:#FFFA96;}
	.st3{fill:#FA8CB4;}
	.st4{fill:#E678A0;}
	.st5{fill:#FFA0C8;}
	.st6{fill:#DCC864;}
	.st7{fill:#AAD2FF;}
	.st8{fill:#96BEF0;}
	.st9{fill:#BEE6FF;}
	.st10{fill:#785AE6;}
	.st11{fill:#D2648C;}
	.st12{fill:#82AADC;}
	.st13{fill:#F0F0E6;}
	.st14{fill:#968CD2;}
	.st15{fill:#A2BAFF;}
	.st16{fill:#96AAF0;}
	.st17{fill:#B4C8FF;}
	.st18{fill:#A99BE0;}
	.st19{fill:#DCDCD2;}
	.st20{fill:#FFFFFA;}
	.st21{fill:#C8B450;}
	.st22{fill:#D2D2C8;}
	.st23{fill:#BEBEB4;}
	.st24{fill:#B4AAF0;}
	.st25{fill:#8D7BD4;}
	.st26{fill:#C8C8BE;}
	.st27{fill:#B4B4AA;}
	.st28{fill:#F0A0AA;}
	.st29{fill:#FFB4BE;}
	.st30{fill:#FFC8D2;}
	.st31{fill:#F09696;}
	.st32{fill:none;stroke:#785AE6;stroke-linecap:round;stroke-linejoin:round;stroke-miterlimit:10;}
	.st33{fill:#FFFFDC;}
	.st34{fill:#C8DCFF;}
	.st35{fill:#826EC8;}
	.st36{fill:#8296DC;}
	.st37{fill:#FFB4DC;}
	.st38{fill:#A2BAFF;stroke:#785AE6;stroke-linecap:round;stroke-linejoin:round;stroke-miterlimit:10;}
	.st39{fill:none;stroke:#785AE6;stroke-miterlimit:10;}
	.st40{fill:#C85A82;}
	.st41{fill:#FFD2DC;}
	.st42{fill:none;stroke:#8D7BD4;stroke-linecap:round;stroke-linejoin:round;stroke-miterlimit:10;}
</style>
<polygon class="st13" points="62.5,62.5 19.5,62.5 19.5,1.5 51.5,1.5 62.5,12.5 "/>
<path class="st19" d="M34.5,47.5c0-5.468-3.141-9-8-9c-3.221,0-5.186,1.544-6.195,3H19.5v16h1.544c0.534,1.492,1.422,3.513,2.705,5  h7.415C34.38,58.304,34.5,48.848,34.5,47.5z"/>
<polygon class="st19" points="51.5,14.5 62.5,14.5 62.5,13 51.5,1.5 "/>
<rect x="19.5" y="60.5" class="st19" width="43" height="2"/>
<polygon class="st13" points="51.5,12.5 62.5,12.5 51.5,1.5 "/>
<polygon class="st20" points="62.5,12.5 51.5,1.5 19.5,1.5 19.5,3.5 51.5,3.5 60.5,12.5 "/>
<g>
	<path class="st10" d="M62.5,63h-43c-0.276,0-0.5-0.224-0.5-0.5v-61C19,1.224,19.224,1,19.5,1h32c0.133,0,0.26,0.053,0.354,0.146   l11,11C62.947,12.24,63,12.367,63,12.5v50C63,62.776,62.776,63,62.5,63z M20,62h42V12.707L51.293,2H20V62z"/>
</g>
<g>
	<path class="st10" d="M62.5,13h-11c-0.276,0-0.5-0.224-0.5-0.5v-11c0-0.202,0.122-0.385,0.309-0.462   c0.187-0.076,0.402-0.034,0.545,0.108l11,11c0.143,0.143,0.186,0.358,0.108,0.545S62.702,13,62.5,13z M52,12h9.293L52,2.707V12z"/>
</g>
<path class="st1" d="M49.5,38.5h-17c-1.657,0-3-1.343-3-3v-11c0-1.657,1.343-3,3-3h17c1.657,0,3,1.343,3,3v11  C52.5,37.157,51.157,38.5,49.5,38.5z"/>
<path class="st6" d="M49.5,36.5h-17c-1.657,0-3-1.343-3-3v2c0,1.657,1.343,3,3,3h17c1.657,0,3-1.343,3-3v-2  C52.5,35.157,51.157,36.5,49.5,36.5z"/>
<path class="st0" d="M49.5,21.5h-17c-1.657,0-3,1.343-3,3v2c0-1.657,1.343-3,3-3h17c1.657,0,3,1.343,3,3v-2  C52.5,22.843,51.157,21.5,49.5,21.5z"/>
<g>
	<path class="st10" d="M49.5,39h-17c-1.93,0-3.5-1.57-3.5-3.5v-11c0-1.93,1.57-3.5,3.5-3.5h17c1.93,0,3.5,1.57,3.5,3.5v11   C53,37.43,51.43,39,49.5,39z M32.5,22c-1.379,0-2.5,1.121-2.5,2.5v11c0,1.379,1.121,2.5,2.5,2.5h17c1.379,0,2.5-1.121,2.5-2.5v-11   c0-1.379-1.121-2.5-2.5-2.5H32.5z"/>
</g>
<g>
	<path class="st18" d="M49,21.5h-3v-6c0-2.481-2.019-4.5-4.5-4.5h-1c-2.481,0-4.5,2.019-4.5,4.5v6h-3v-6c0-4.136,3.364-7.5,7.5-7.5   h1c4.136,0,7.5,3.364,7.5,7.5V21.5z"/>
</g>
<g>
	<g>
		<path class="st10" d="M46,17.224c-0.276,0-0.5-0.224-0.5-0.5V15.5c0-2.206-1.794-4-4-4h-1c-0.54,0-1.062,0.105-1.555,0.314    c-0.251,0.108-0.547-0.01-0.655-0.265c-0.108-0.254,0.011-0.548,0.265-0.655c0.616-0.262,1.271-0.395,1.945-0.395h1    c2.757,0,5,2.243,5,5v1.224C46.5,17,46.276,17.224,46,17.224z"/>
	</g>
	<g>
		<path class="st10" d="M49,22h-3c-0.276,0-0.5-0.224-0.5-0.5v-1.832c0-0.276,0.224-0.5,0.5-0.5s0.5,0.224,0.5,0.5V21h2v-5.5    c0-3.859-3.141-7-7-7h-1c-3.859,0-7,3.141-7,7V21h2v-5.5c0-0.881,0.233-1.747,0.674-2.505c0.141-0.241,0.445-0.32,0.684-0.182    c0.239,0.14,0.32,0.445,0.182,0.684C36.687,14.104,36.5,14.796,36.5,15.5v6c0,0.276-0.224,0.5-0.5,0.5h-3    c-0.276,0-0.5-0.224-0.5-0.5v-6c0-4.411,3.589-8,8-8h1c4.411,0,8,3.589,8,8v6C49.5,21.776,49.276,22,49,22z"/>
	</g>
</g>
<path class="st6" d="M44.5,28c0-1.933-1.567-3.5-3.5-3.5s-3.5,1.567-3.5,3.5c0,1.478,0.919,2.736,2.215,3.249L38.5,35.5h5  l-1.215-4.251C43.581,30.736,44.5,29.478,44.5,28z"/>
<g>
	<path class="st21" d="M42.654,33.039c-0.218,0-0.418-0.143-0.48-0.362l-0.369-1.29c-0.071-0.247,0.058-0.508,0.296-0.603   C43.255,30.327,44,29.234,44,28c0-1.654-1.346-3-3-3s-3,1.346-3,3c0,0.276-0.224,0.5-0.5,0.5S37,28.276,37,28c0-2.206,1.794-4,4-4   s4,1.794,4,4c0,1.494-0.817,2.832-2.116,3.522l0.251,0.879c0.076,0.266-0.077,0.542-0.343,0.618   C42.746,33.033,42.699,33.039,42.654,33.039z"/>
</g>
<g>
	<path class="st21" d="M43.5,36h-5c-0.157,0-0.305-0.073-0.399-0.199c-0.095-0.125-0.124-0.287-0.081-0.438l1.098-3.841   c-0.432-0.23-0.822-0.541-1.145-0.912c-0.181-0.209-0.158-0.524,0.05-0.706c0.208-0.181,0.523-0.157,0.706,0.05   c0.317,0.366,0.723,0.653,1.17,0.831c0.239,0.095,0.368,0.355,0.297,0.603L39.163,35h3.674l-0.146-0.51   c-0.076-0.266,0.077-0.543,0.343-0.618c0.267-0.082,0.543,0.077,0.618,0.343l0.328,1.147c0.043,0.151,0.014,0.313-0.081,0.438   C43.805,35.927,43.657,36,43.5,36z"/>
</g>
<path class="st22" d="M47,46H35c-0.552,0-1-0.448-1-1l0,0c0-0.552,0.448-1,1-1h12c0.552,0,1,0.448,1,1l0,0  C48,45.552,47.552,46,47,46z"/>
<path class="st22" d="M53,51H29c-0.552,0-1-0.448-1-1l0,0c0-0.552,0.448-1,1-1h24c0.552,0,1,0.448,1,1l0,0  C54,50.552,53.552,51,53,51z"/>
<path class="st23" d="M34.469,49H29c-0.552,0-1,0.448-1,1c0,0.552,0.448,1,1,1h5.352C34.41,50.245,34.447,49.561,34.469,49z"/>
<path class="st22" d="M53,56H29c-0.552,0-1-0.448-1-1l0,0c0-0.552,0.448-1,1-1h24c0.552,0,1,0.448,1,1l0,0  C54,55.552,53.552,56,53,56z"/>
<path class="st23" d="M34.027,54H29c-0.552,0-1,0.448-1,1c0,0.552,0.448,1,1,1h4.683C33.818,55.328,33.933,54.657,34.027,54z"/>
<g>
	<path class="st15" d="M21.5,43.5c0,0,1-3,5-3s6,3,6,7s-1,15-5,15c-3,0-5-7-5-7h-11c0,0-2,7-5,7c-4,0-5-11-5-15s2-7,6-7s5,3,5,3   H21.5z"/>
	<path class="st16" d="M27.5,60.5c-2.37,0-3.492-4.368-3.858-6.203c-0.093-0.465-0.505-0.797-0.979-0.797H11.337   c-0.474,0-0.886,0.332-0.979,0.797C9.992,56.132,8.87,60.5,6.5,60.5c-3.641,0-4.796-9.111-4.974-13.764   C1.509,46.986,1.5,47.241,1.5,47.5c0,4,1,15,5,15c3,0,5-7,5-7h11c0,0,2,7,5,7c4,0,5-11,5-15c0-0.259-0.009-0.514-0.026-0.764   C32.296,51.389,31.141,60.5,27.5,60.5z"/>
	<path class="st17" d="M7.5,42.5c4,0,5,3,5,3h9c0,0,1-3,5-3c3.741,0,5.732,2.624,5.974,6.236c0.018-0.459,0.026-0.877,0.026-1.236   c0-4-2-7-6-7s-5,3-5,3h-9c0,0-1-3-5-3s-6,3-6,7c0,0.359,0.008,0.777,0.026,1.236C1.768,45.124,3.759,42.5,7.5,42.5z"/>
	<g>
		<path class="st10" d="M27.5,63c-2.971,0-4.877-5.413-5.372-7H11.872c-0.495,1.587-2.401,7-5.372,7C1.149,63,1,47.655,1,47.5    C1,42.874,3.49,40,7.5,40c3.526,0,4.916,2.145,5.33,3h8.34c0.414-0.855,1.804-3,5.33-3c4.01,0,6.5,2.874,6.5,7.5    C33,47.655,32.851,63,27.5,63z M11.5,55h11c0.224,0,0.419,0.148,0.48,0.362C23.509,57.209,25.351,62,27.5,62    c3.18,0,4.5-9.444,4.5-14.5c0-4.07-2.056-6.5-5.5-6.5c-3.598,0-4.517,2.632-4.525,2.658C21.906,43.862,21.715,44,21.5,44h-9    c-0.215,0-0.406-0.138-0.475-0.342C11.989,43.552,11.069,41,7.5,41C4.056,41,2,43.43,2,47.5C2,52.556,3.32,62,6.5,62    c2.151,0,3.992-4.791,4.52-6.638C11.081,55.148,11.276,55,11.5,55z"/>
	</g>
	<circle class="st1" cx="9" cy="46" r="1.5"/>
	<circle class="st1" cx="5" cy="50" r="1.5"/>
	<path class="st4" d="M19.5,52.5h-5c-0.552,0-1-0.448-1-1l0,0c0-0.552,0.448-1,1-1h5c0.552,0,1,0.448,1,1l0,0   C20.5,52.052,20.052,52.5,19.5,52.5z"/>
	<polygon class="st1" points="29.5,46.5 27.5,46.5 27.5,44.5 25.5,44.5 25.5,46.5 23.5,46.5 23.5,48.5 25.5,48.5 25.5,50.5    27.5,50.5 27.5,48.5 29.5,48.5  "/>
	<g>
		<path class="st10" d="M17,44c-0.276,0-0.5-0.224-0.5-0.5v-5c0-0.562-0.623-0.941-1.649-1.5C13.581,36.309,12,35.448,12,33.5    c0-2.769,2.289-3.5,3.5-3.5c0.275,0,0.498,0.223,0.499,0.498s-0.222,0.5-0.497,0.502C15.246,31.002,13,31.088,13,33.5    c0,1.354,1.131,1.97,2.329,2.622c1.067,0.581,2.171,1.182,2.171,2.378v5C17.5,43.776,17.276,44,17,44z"/>
	</g>
</g>
</svg>
