<svg id="Capa_1" enable-background="new 0 0 512 512" height="512" viewBox="0 0 512 512" width="512" xmlns="http://www.w3.org/2000/svg"><g><circle cx="256" cy="256" fill="#ffd944" r="256"/><path d="m233.146 278.855-105.893 159.31 66.1 66.1c20.049 5.044 41.033 7.735 62.647 7.735 141.385 0 256-114.615 256-256 0-21.614-2.691-42.598-7.735-62.648l-92.809-92.809z" fill="#fc0"/><g><path d="m411.456 100.544c-58.517-58.517-156.802-55.106-219.526 7.618-24.062 24.062-39.385 53.359-45.842 83.636l75.324 98.79 103.385-72.59z" fill="#ff6426"/><path d="m411.456 100.544-190.043 190.043 98.79 75.324c30.276-6.457 59.573-21.78 83.636-45.842 62.723-62.724 66.134-161.009 7.617-219.525z" fill="#ff4c04"/><path d="m100.544 411.456 80.75-69.312 51.852-63.29-87.057-87.057c-7.721 36.201-2.746 73.798 15.163 105.533l-87.417 87.417z" fill="#b46d3c"/><path d="m100.544 411.456 26.709 26.709 87.417-87.417c31.734 17.909 69.332 22.883 105.533 15.163l-87.057-87.057z" fill="#8e562f"/></g><g><path d="m332.168 383.116-51.614 17.205c-19.004-19.004-19.004-49.815 0-68.819s49.815-19.004 68.819 0z" fill="#ebf3ff"/><path d="m349.372 400.321c-19.004 19.004-49.815 19.004-68.819 0l68.819-68.819c19.004 19.004 19.004 49.815 0 68.819z" fill="#d7e8ff"/></g></g></svg>