<?xml version="1.0" encoding="UTF-8"?>
<!DOCTYPE svg PUBLIC "-//W3C//DTD SVG 1.1//EN" "http://www.w3.org/Graphics/SVG/1.1/DTD/svg11.dtd">
<!-- Creator: CorelDRAW -->
<svg xmlns="http://www.w3.org/2000/svg" xml:space="preserve" width="120px" height="100px" version="1.1" style="shape-rendering:geometricPrecision; text-rendering:geometricPrecision; image-rendering:optimizeQuality; fill-rule:evenodd; clip-rule:evenodd"
viewBox="0 0 120 100"
 xmlns:xlink="http://www.w3.org/1999/xlink"
 xmlns:xodm="http://www.corel.com/coreldraw/odm/2003">
 <defs>
  <style type="text/css">
   <![CDATA[
    .fil0 {fill:#2B2A29}
    .fil1 {fill:black}
    .fil5 {fill:#FDD830}
    .fil3 {fill:#FEF146}
    .fil4 {fill:#FFA402}
    .fil2 {fill:url(#id0)}
   ]]>
  </style>
  <linearGradient id="id0" gradientUnits="userSpaceOnUse" x1="62.48" y1="60.53" x2="72.28" y2="1.13">
   <stop offset="0" style="stop-opacity:1; stop-color:#FFA200"/>
   <stop offset="0.658824" style="stop-opacity:1; stop-color:#FEC31D"/>
   <stop offset="1" style="stop-opacity:1; stop-color:#FDE43B"/>
  </linearGradient>
 </defs>
 <g id="Layer_x0020_1">
  <metadata id="CorelCorpID_0Corel-Layer"/>
  <g id="_2275857258592">
   <g>
    <path class="fil0" d="M25.12 88.83l-12.48 0c0.42,-1.79 1.19,-4.56 1.68,-6.38l1.14 -4.25c0.21,-0.75 0.38,-1.43 0.57,-2.16l1.16 -4.3 12.54 0 -1.12 4.27c-0.79,2.81 -1.51,5.76 -2.3,8.55l-1.19 4.27zm-24.6 4.36c0,0.9 0.08,1.54 0.38,2.29 0.34,0.85 0.91,1.5 1.64,1.99 0.28,0.19 0.49,0.28 0.79,0.43 1.72,0.86 4.34,0.81 6.4,0.81 0.48,0 0.71,0.06 1.15,0.06l8.37 0.06c0.47,0 0.69,-0.07 1.15,-0.07 1.16,0.01 3.67,0.01 4.73,-0.11 0.36,-0.04 0.81,-0.05 1.15,-0.07 1.93,-0.06 3.86,-0.8 5.48,-1.78 0.37,-0.21 0.98,-0.78 1.29,-1.08 0.54,-0.53 1.18,-1.39 1.58,-2.05 0.82,-1.37 1.33,-2.69 1.75,-4.25 0.49,-1.8 1.13,-3.95 1.57,-5.71 0.62,-2.52 1.38,-5.05 2.02,-7.61 0.44,-1.77 1.76,-6.2 1.76,-7.94 0,-0.91 0,-1.67 -0.33,-2.52 -0.62,-1.59 -2.03,-2.43 -3.63,-2.91 -1.27,-0.38 -2.54,-0.38 -3.92,-0.38 -1.44,0 -2.81,-0.07 -4.3,-0.07l-11.88 0.07c-1.34,-0.01 -4.6,0.63 -5.75,1.1 -1.56,0.63 -2.82,1.78 -3.78,3.06 -1.58,2.11 -2.22,4.78 -2.89,7.35 -0.24,0.91 -0.51,1.79 -0.74,2.71l-2.88 10.83c-0.46,1.56 -1.11,4.13 -1.11,5.79l0 0z"/>
    <path class="fil0" d="M39.49 93.61c0,1.6 0.59,2.82 1.47,3.56 1.99,1.7 6.06,1.54 8.59,1.54 0.87,0 1.57,0.06 2.48,0.06 1.99,0 7.35,0.07 8.85,-0.06l2.91 0c0.4,0 0.52,-0.07 0.91,-0.07 2.18,0.01 4.69,-0.86 6.01,-1.74 1.76,-1.18 2.61,-2.47 3.48,-4.28 0.22,-0.46 0.4,-0.85 0.57,-1.36l1.34 -4.54c0.13,-0.5 0.29,-0.99 0.43,-1.52 0.12,-0.48 0.27,-1.01 0.42,-1.51 0.85,-2.92 1.64,-6.33 2.48,-9.16l3.26 -12.3 -11.51 0c-0.02,0.28 -0.14,0.53 -0.21,0.82l-1.57 5.87c-0.64,2.24 -1.19,4.44 -1.81,6.69l-2.73 9.99c-0.17,0.57 -0.31,1.09 -0.47,1.65l-0.36 1.27c-0.06,0.16 -0.05,0.31 -0.24,0.31l-12.06 0c0,-0.3 0.11,-0.59 0.18,-0.85l4.28 -15.72c0.79,-2.8 1.68,-6.28 2.4,-9.17 0.05,-0.21 0.15,-0.69 0.23,-0.86l-11.52 0 -0.5 1.91c-0.8,3.15 -1.79,6.52 -2.58,9.67 -0.78,3.19 -1.73,6.49 -2.53,9.71 -0.17,0.68 -0.33,1.31 -0.51,1.97 -0.17,0.66 -1.34,5.04 -1.49,5.85l-0.14 1.07c-0.03,0.45 -0.06,0.74 -0.06,1.2l0 0z"/>
    <path class="fil0" d="M83.06 71.74l11.21 0c-0.01,0.28 -5.5,20.4 -5.96,21.98 -0.18,0.6 -0.31,1.11 -0.48,1.7l-0.73 2.54c-0.08,0.26 -0.22,0.6 -0.22,0.87l11.69 0c0.13,-0.56 0.28,-1.12 0.45,-1.68 0.17,-0.58 0.27,-1.1 0.44,-1.68l0.9 -3.39c0.3,-1.16 0.62,-2.23 0.91,-3.4 0.78,-3.11 1.88,-7.04 2.74,-10.17l1.84 -6.77 11.21 0 0.28 -1.17c0.11,-0.41 0.2,-0.83 0.32,-1.2l1.82 -7.14 -33.94 0c-0.01,0.38 -1.08,4.39 -1.2,4.79l-0.97 3.52c-0.07,0.27 -0.31,0.97 -0.31,1.2l0 0z"/>
   </g>
   <g>
    <path class="fil1" d="M50.01 34.59l-3.86 14.79 9.59 -0.01 6.14 -18.57c0,0.01 0.02,0.01 0.02,0.03 0,0.03 0.03,0.03 0.03,0.04 0.07,0.14 0.01,-0.03 0.05,0.14l5.96 18.3c0.26,0.15 5.67,0.06 6.42,0.06 1.01,0 5.95,0.06 6.52,-0.02l2.7 -10.04c0.11,-0.42 0.19,-1.08 0.42,-1.41 -0.01,-0.38 0.86,-3.36 1.03,-3.98 0.31,-1.17 3.11,-11.56 3.29,-11.75 -0.01,-0.36 1.06,-4.04 1.24,-4.69 0.43,-1.52 0.85,-3.06 1.26,-4.6l-10.03 0 -5.45 15.9c-0.13,0.37 -0.26,0.74 -0.39,1.12 -0.07,0.19 -0.13,0.38 -0.2,0.58 -0.03,0.1 -0.05,0.18 -0.09,0.28l-0.14 0.26 -0.09 0.33 -5.8 -16.26c-0.15,-0.4 -0.27,-0.76 -0.42,-1.15 -0.11,-0.3 -0.19,-0.91 -0.46,-1.06l-12.03 -0.02 -5.71 21.73 0 0z"/>
    <path class="fil2" d="M44.87 32.24c-0.2,0.2 -2.08,7.6 -2.35,8.56l-2.29 8.57 -10.84 0c0.11,-0.64 0.38,-1.48 0.55,-2.12 0.19,-0.72 0.37,-1.44 0.57,-2.16 0.19,-0.73 1.11,-3.88 1.1,-4.35 0.16,-0.18 1.68,-6.13 1.86,-6.87 0.25,-0.99 1.71,-6.23 1.83,-6.96l10.94 0c-0.16,0.84 -0.48,1.82 -0.71,2.66 -0.13,0.49 -0.68,2.31 -0.66,2.67l0 0zm1.28 17.14l3.86 -14.79 5.71 -21.73 12.03 0.02c0.27,0.15 0.35,0.76 0.46,1.06 0.15,0.39 0.27,0.75 0.42,1.15l5.8 16.26 0.09 -0.33c-0.02,-0.35 0.81,-3.94 0.95,-4.59 0.34,-1.51 0.66,-3.02 0.99,-4.53 0.63,-2.94 1.38,-5.98 1.94,-9.02l2.39 0 10.03 0c-0.41,1.54 -0.83,3.08 -1.26,4.6 -0.18,0.65 -1.25,4.33 -1.24,4.69 -0.18,0.19 -2.98,10.58 -3.29,11.75 -0.17,0.62 -1.04,3.6 -1.03,3.98 -0.23,0.33 -0.31,0.99 -0.42,1.41l-2.7 10.04c-0.57,0.08 -5.51,0.02 -6.52,0.02 -0.75,0 -6.16,0.09 -6.42,-0.06 -0.17,0.09 -0.27,0.06 -0.55,0.06l-1.76 0c-0.36,-2.16 -3.76,-18.11 -3.65,-18.36 -0.04,-0.17 0.02,0 -0.05,-0.14 0,-0.01 -0.02,-0.01 -0.03,-0.04 0,-0.02 -0.02,-0.02 -0.02,-0.03l-6.14 18.57 -9.59 0.01 0 0zm-9.51 -27.02l2.32 -9.49 11.06 0.01 -2.29 8.53 -0.25 0.9c-0.73,0.09 -1.92,0.02 -2.7,0.02 -1.08,0 -7.64,-0.06 -8.14,0.03l0 0zm57.01 0.92c0.21,-0.18 1.38,-4.97 1.45,-5.22 0.48,-1.8 1.14,-3.78 0.7,-5.68 -0.39,-1.74 -1.64,-3.05 -2.99,-3.7 -0.68,-0.34 -3.59,-0.99 -4.66,-1.21 -0.3,-0.06 -0.48,-0.05 -0.69,-0.22l-2.5 -0.01c-0.77,0 -1.54,0 -2.3,0.01 -0.49,0 -0.53,-0.12 -0.85,-0.32 -0.24,-0.14 -0.45,-0.29 -0.7,-0.44 -0.24,-0.14 -0.46,-0.28 -0.71,-0.44 -0.25,-0.16 -0.47,-0.3 -0.71,-0.45 -2.02,-1.31 -5.17,-3.19 -6.91,-4.41 -0.22,0.01 -0.43,0.2 -0.6,0.3 -0.2,0.12 -0.37,0.25 -0.59,0.38 -0.22,0.13 -0.35,0.23 -0.55,0.36l-7.78 4.95c-0.5,0.3 -2.54,0.19 -3.15,0.19l-9.39 0c-0.71,0 -1.22,0.06 -1.88,0.06 -3.79,-0.01 -5.38,-0.09 -8.8,0.59 -1.81,0.36 -3.86,1.15 -5.4,2.17 -0.62,0.41 -1.07,0.86 -1.55,1.24 -0.4,0.3 -1.08,0.99 -1.44,1.41 -0.79,0.92 -1.43,2.59 -1.8,3.84l-0.46 1.46 -3.16 11.1c-0.18,0.6 -0.33,1.21 -0.51,1.85 -0.1,0.35 -0.52,1.64 -0.5,1.91 -0.08,0.1 -0.02,-0.01 -0.1,0.16 -0.02,0.06 -0.05,0.17 -0.07,0.23l-0.37 1.32c-0.17,0.59 -0.34,1.15 -0.51,1.74 -0.71,2.42 -1.22,4.7 -1.83,7.13 -0.17,0.63 -0.34,2.31 -0.41,3.81l0 1.94c0.02,0.21 0.04,0.38 0.08,0.51 0.79,3.08 3.6,4.21 6.44,4.77 1.26,0.25 2.67,0.39 4.15,0.39 6.71,0 13.55,0.05 20.24,0 0.64,-0.01 0.47,-0.04 0.88,0.22l2.07 1.31c1.49,0.88 3.27,2.13 4.77,3.05 0.32,0.19 1.93,1.28 2.12,1.3 0.01,-0.02 0.03,-0.05 0.04,-0.04l4.18 -2.69c0.49,-0.29 0.93,-0.6 1.42,-0.89 0.46,-0.27 0.95,-0.59 1.42,-0.89 0.49,-0.31 0.95,-0.58 1.41,-0.89 0.75,-0.52 0.64,-0.51 1.75,-0.54 0.46,-0.01 1.87,-0.03 2.16,-0.19 0.82,-0.2 2,-0.69 2.84,-1 3.11,-1.15 5.37,-1.61 7.45,-3.88 0.27,-0.29 0.1,-0.02 0.46,-0.51 1.22,-1.65 1.53,-2.33 2.11,-4.49 0.37,-1.41 1.34,-4.8 1.58,-5.98 0.19,-0.4 3.27,-12.22 3.65,-13.63 0.12,-0.45 0.49,-1.63 0.5,-1.98l0 0z"/>
    <path class="fil1" d="M31.61 40.74c0.01,0.47 -0.91,3.62 -1.1,4.35 -0.2,0.72 -0.38,1.44 -0.57,2.16 -0.17,0.64 -0.44,1.48 -0.55,2.12l10.84 0 2.29 -8.57c0.27,-0.96 2.15,-8.36 2.35,-8.56 -0.02,-0.36 0.54,-2.18 0.66,-2.67 0.23,-0.84 0.55,-1.82 0.71,-2.66l-10.94 0c-0.12,0.73 -1.57,5.97 -1.83,6.96 -0.18,0.74 -1.7,6.69 -1.86,6.87l0 0z"/>
    <path class="fil3" d="M93.65 23.28c-0.01,0.35 -0.38,1.53 -0.5,1.98 -0.38,1.41 -3.46,13.23 -3.65,13.63 -0.24,1.18 -1.21,4.57 -1.58,5.98 -0.58,2.16 -0.89,2.84 -2.11,4.49 -0.36,0.49 -0.19,0.22 -0.46,0.51 -2.08,2.27 -4.33,2.73 -7.45,3.88 -0.84,0.31 -2.02,0.8 -2.84,1l0 0.07c2.06,0 4.67,-0.5 6.62,-0.98 0.63,-0.16 1.37,-0.37 1.95,-0.6 1.4,-0.56 3.14,-1.6 4.09,-2.82 0.81,-1.05 0.51,-0.5 1.33,-1.88 1.06,-1.79 2.17,-7.14 2.93,-9.73 0.56,-1.87 1.07,-4.08 1.62,-6.02 0.38,-1.34 0.67,-2.65 1.06,-3.96 0.19,-0.64 0.37,-1.36 0.54,-2.01l2.14 -7.99c0.56,-2.07 1.09,-4.38 0.39,-6.53 -0.39,-1.2 -1.09,-2.27 -2.07,-3.03 -1.1,-0.86 -2.04,-1.15 -3.63,-1.46 -2.75,-0.55 -1.76,-0.56 -4.57,-0.56 0.21,0.17 0.39,0.16 0.69,0.22 1.07,0.22 3.98,0.87 4.66,1.21 1.34,0.65 2.6,1.96 2.99,3.7 0.44,1.9 -0.22,3.88 -0.7,5.68 -0.07,0.25 -1.24,5.04 -1.45,5.22l0 0z"/>
    <path class="fil1" d="M36.64 22.36c0.5,-0.09 7.06,-0.03 8.14,-0.03 0.78,0 1.97,0.07 2.7,-0.02l0.25 -0.9 2.29 -8.53 -11.06 -0.01 -2.32 9.49 0 0z"/>
    <path class="fil4" d="M74.52 31.02l0.14 -0.26c0.04,-0.1 0.06,-0.18 0.09,-0.28 0.07,-0.2 0.13,-0.39 0.2,-0.58 0.13,-0.38 0.26,-0.75 0.39,-1.12l5.45 -15.9 -2.39 0c-0.56,3.04 -1.32,6.08 -1.94,9.02 -0.33,1.51 -0.65,3.02 -0.99,4.53 -0.14,0.65 -0.97,4.24 -0.95,4.59l0 0z"/>
    <path class="fil3" d="M67.94 49.31l-5.96 -18.3c-0.12,0.25 3.29,16.2 3.65,18.36l1.76 0c0.28,0 0.38,0.03 0.55,-0.06l0 0z"/>
    <path class="fil4" d="M84.96 7.24c-0.22,-0.17 -0.41,-0.27 -0.66,-0.43 -1.56,-1.01 -3.42,-2.09 -4.91,-3.08l-2.8 -1.74c-0.25,-0.16 -0.46,-0.3 -0.71,-0.45 -0.37,-0.24 -0.46,-0.35 -0.79,-0.36 -0.76,-0.02 -1.55,0.01 -2.31,0.01 1.74,1.22 4.89,3.1 6.91,4.41 0.24,0.15 0.46,0.29 0.71,0.45 0.25,0.16 0.47,0.3 0.71,0.44 0.25,0.15 0.46,0.3 0.7,0.44 0.32,0.2 0.36,0.32 0.85,0.32 0.76,-0.01 1.53,-0.01 2.3,-0.01l0 0z"/>
    <path class="fil5" d="M62.68 60.88l0.04 0 2.37 0c0.45,-0.06 1.08,-0.57 1.44,-0.8l8.13 -5.08c0.22,-0.14 0.33,-0.13 0.4,-0.18l0 -0.07c-0.29,0.16 -1.7,0.18 -2.16,0.19 -1.11,0.03 -1,0.02 -1.75,0.54 -0.46,0.31 -0.92,0.58 -1.41,0.89 -0.47,0.3 -0.96,0.62 -1.42,0.89 -0.49,0.29 -0.93,0.6 -1.42,0.9l-4.18 2.68c0,-0.01 -0.02,0.03 -0.04,0.04z"/>
   </g>
  </g>
 </g>
</svg>
