<?xml version="1.0" encoding="UTF-8"?>
<!DOCTYPE svg PUBLIC "-//W3C//DTD SVG 1.1//EN" "http://www.w3.org/Graphics/SVG/1.1/DTD/svg11.dtd">
<!-- Creator: CorelDRAW -->
<svg xmlns="http://www.w3.org/2000/svg" xml:space="preserve" width="500px" height="155px" version="1.1" style="shape-rendering:geometricPrecision; text-rendering:geometricPrecision; image-rendering:optimizeQuality; fill-rule:evenodd; clip-rule:evenodd"
viewBox="0 0 500 155"
 xmlns:xlink="http://www.w3.org/1999/xlink"
 xmlns:xodm="http://www.corel.com/coreldraw/odm/2003">
 <defs>
  <style type="text/css">
   <![CDATA[
    .fil0 {fill:black}
    .fil5 {fill:#FDD830}
    .fil3 {fill:#FEF146}
    .fil1 {fill:#FEFEFE}
    .fil4 {fill:#FFA402}
    .fil2 {fill:url(#id0)}
   ]]>
  </style>
  <linearGradient id="id0" gradientUnits="userSpaceOnUse" x1="110.21" y1="153.79" x2="135.77" y2="2.15">
   <stop offset="0" style="stop-opacity:1; stop-color:#FFA200"/>
   <stop offset="0.658824" style="stop-opacity:1; stop-color:#FEC31D"/>
   <stop offset="1" style="stop-opacity:1; stop-color:#FDE43B"/>
  </linearGradient>
 </defs>
 <g id="Layer_x0020_1">
  <metadata id="CorelCorpID_0Corel-Layer"/>
  <g id="_2268410587248">
   <path class="fil0" d="M77.89 87.06l-9.81 37.6 24.38 -0.03 15.6 -47.21c0,0.02 0.05,0.02 0.06,0.08 0.01,0.07 0.07,0.08 0.08,0.11 0.17,0.35 0.01,-0.08 0.13,0.36l15.15 46.5c0.65,0.39 14.4,0.16 16.3,0.16 2.59,0 15.14,0.15 16.59,-0.06l6.86 -25.5c0.28,-1.08 0.49,-2.76 1.07,-3.6 -0.04,-0.97 2.19,-8.53 2.62,-10.12 0.78,-2.96 7.9,-29.37 8.35,-29.87 -0.02,-0.91 2.71,-10.26 3.17,-11.91 1.08,-3.87 2.16,-7.78 3.19,-11.7l-25.5 0 -13.85 40.41c-0.33,0.96 -0.65,1.89 -0.99,2.85 -0.17,0.5 -0.34,0.97 -0.51,1.49 -0.08,0.25 -0.13,0.46 -0.22,0.7l-0.36 0.66 -0.22 0.84 -14.76 -41.32c-0.37,-1.02 -0.69,-1.93 -1.06,-2.94 -0.27,-0.76 -0.49,-2.3 -1.17,-2.69l-30.57 -0.05 -14.53 55.24z"/>
   <path class="fil1" d="M253.62 99.5l-31.73 0c1.06,-4.54 3.01,-11.58 4.28,-16.2l2.89 -10.82c0.54,-1.9 0.96,-3.63 1.45,-5.48l2.93 -10.94 31.89 0 -2.84 10.87c-2.02,7.13 -3.85,14.64 -5.85,21.73l-3.02 10.84zm-62.54 11.09c0,2.28 0.21,3.91 0.96,5.82 0.86,2.15 2.32,3.82 4.18,5.06 0.7,0.47 1.23,0.7 1.99,1.09 4.38,2.2 11.05,2.07 16.28,2.05 1.22,0 1.81,0.16 2.93,0.16l21.26 0.15c1.21,0.01 1.75,-0.16 2.92,-0.16 2.96,0.02 9.35,0.02 12.04,-0.28 0.92,-0.1 2.05,-0.15 2.91,-0.18 4.92,-0.15 9.81,-2.03 13.95,-4.53 0.92,-0.55 2.49,-1.98 3.26,-2.74 1.37,-1.36 3,-3.54 4.02,-5.23 2.09,-3.48 3.39,-6.84 4.46,-10.79 1.24,-4.57 2.87,-10.05 3.98,-14.51 1.59,-6.42 3.51,-12.84 5.14,-19.35 1.13,-4.51 4.47,-15.75 4.47,-20.18 0,-2.33 0.01,-4.25 -0.83,-6.41 -1.59,-4.04 -5.16,-6.18 -9.24,-7.4 -3.22,-0.96 -6.45,-0.97 -9.96,-0.97 -3.65,0 -7.13,-0.16 -10.93,-0.16l-30.2 0.16c-3.41,-0.01 -11.7,1.6 -14.61,2.79 -3.96,1.62 -7.18,4.54 -9.62,7.79 -4.02,5.37 -5.63,12.14 -7.35,18.68 -0.6,2.32 -1.28,4.56 -1.88,6.9l-7.3 27.51c-1.17,3.98 -2.83,10.51 -2.83,14.73z"/>
   <path class="fil1" d="M290.13 111.67c0,4.06 1.51,7.15 3.74,9.05 5.07,4.3 15.41,3.89 21.83,3.89 2.22,0 4.01,0.16 6.32,0.16 5.04,0 18.68,0.17 22.49,-0.15l7.39 0c1.03,0 1.33,-0.17 2.31,-0.17 5.56,0.02 11.94,-2.19 15.28,-4.43 4.47,-3 6.65,-6.27 8.85,-10.87 0.57,-1.17 1.03,-2.17 1.46,-3.46l3.4 -11.55c0.33,-1.26 0.74,-2.52 1.08,-3.85 0.32,-1.23 0.69,-2.58 1.07,-3.86 2.17,-7.41 4.18,-16.08 6.31,-23.26l8.3 -31.29 -29.27 0c-0.06,0.73 -0.34,1.35 -0.52,2.09l-4.01 14.94c-1.61,5.69 -3.03,11.28 -4.59,16.98l-6.95 25.4c-0.42,1.45 -0.78,2.79 -1.18,4.21l-0.93 3.22c-0.14,0.42 -0.11,0.78 -0.61,0.78l-30.65 0c0,-0.76 0.28,-1.49 0.46,-2.15l10.87 -39.97c2.01,-7.11 4.27,-15.96 6.1,-23.31 0.13,-0.52 0.38,-1.75 0.59,-2.19l-29.27 0 -1.29 4.86c-2.01,8 -4.55,16.58 -6.54,24.59 -2,8.11 -4.4,16.5 -6.43,24.68 -0.43,1.72 -0.85,3.34 -1.3,5.02 -0.44,1.66 -3.42,12.81 -3.79,14.85l-0.36 2.72c-0.08,1.15 -0.16,1.89 -0.16,3.07z"/>
   <path class="fil2" d="M64.83 81.09c-0.5,0.51 -5.29,19.32 -5.97,21.75l-5.83 21.79 -27.55 0c0.27,-1.62 0.96,-3.75 1.39,-5.4 0.48,-1.83 0.96,-3.66 1.45,-5.48 0.49,-1.85 2.84,-9.86 2.8,-11.05 0.42,-0.46 4.27,-15.58 4.74,-17.46 0.64,-2.53 4.33,-15.84 4.65,-17.7l27.79 0c-0.39,2.13 -1.2,4.62 -1.78,6.77 -0.33,1.23 -1.73,5.87 -1.69,6.78zm3.25 43.57l9.81 -37.6 14.53 -55.24 30.57 0.05c0.68,0.39 0.9,1.93 1.17,2.69 0.37,1.01 0.69,1.92 1.06,2.94l14.76 41.32 0.22 -0.84c-0.05,-0.88 2.05,-10 2.42,-11.66 0.85,-3.83 1.68,-7.67 2.5,-11.52 1.6,-7.46 3.51,-15.19 4.95,-22.92l6.06 -0.01 25.5 0c-1.03,3.92 -2.11,7.83 -3.19,11.7 -0.46,1.65 -3.19,11 -3.17,11.91 -0.45,0.5 -7.57,26.91 -8.35,29.87 -0.43,1.59 -2.66,9.15 -2.62,10.12 -0.58,0.84 -0.79,2.52 -1.07,3.6l-6.86 25.5c-1.45,0.21 -14,0.06 -16.59,0.06 -1.9,0 -15.65,0.23 -16.3,-0.16 -0.43,0.23 -0.69,0.15 -1.41,0.15l-4.47 0c-0.91,-5.47 -9.57,-46.02 -9.27,-46.65 -0.12,-0.44 0.04,-0.01 -0.13,-0.36 -0.01,-0.03 -0.07,-0.04 -0.08,-0.11 -0.01,-0.06 -0.06,-0.06 -0.06,-0.08l-15.6 47.21 -24.38 0.03zm-24.16 -68.69l5.89 -24.13 28.12 0.03 -5.84 21.69 -0.62 2.28c-1.86,0.22 -4.88,0.05 -6.86,0.05 -2.76,0 -19.44,-0.16 -20.69,0.08zm144.9 2.34c0.53,-0.45 3.52,-12.64 3.69,-13.28 1.22,-4.57 2.89,-9.6 1.79,-14.42 -1,-4.42 -4.19,-7.77 -7.6,-9.42 -1.74,-0.85 -9.14,-2.52 -11.85,-3.06 -0.76,-0.15 -1.23,-0.13 -1.76,-0.58l-6.35 -0.02c-1.95,0 -3.91,0.01 -5.86,0.02 -1.23,0 -1.33,-0.29 -2.14,-0.79 -0.62,-0.37 -1.16,-0.74 -1.8,-1.13 -0.6,-0.36 -1.15,-0.72 -1.8,-1.13 -0.64,-0.4 -1.2,-0.75 -1.79,-1.13 -5.14,-3.32 -13.15,-8.11 -17.58,-11.22 -0.55,0.04 -1.08,0.51 -1.53,0.77 -0.51,0.31 -0.93,0.63 -1.5,0.97 -0.55,0.33 -0.88,0.58 -1.4,0.91l-19.77 12.58c-1.26,0.77 -6.46,0.48 -7.99,0.48l-23.88 0c-1.8,0 -3.09,0.16 -4.77,0.15 -9.65,-0.02 -13.69,-0.22 -22.38,1.5 -4.61,0.92 -9.81,2.93 -13.73,5.53 -1.56,1.03 -2.71,2.19 -3.94,3.14 -1.01,0.77 -2.75,2.53 -3.66,3.59 -2.01,2.35 -3.63,6.59 -4.56,9.76l-1.18 3.71 -8.03 28.21c-0.46,1.54 -0.84,3.08 -1.3,4.71 -0.26,0.9 -1.31,4.18 -1.26,4.86 -0.21,0.25 -0.06,-0.02 -0.25,0.4 -0.07,0.15 -0.15,0.43 -0.19,0.59l-0.95 3.36c-0.42,1.5 -0.85,2.91 -1.29,4.41 -1.81,6.16 -3.09,11.96 -4.66,18.13 -0.41,1.6 -0.85,5.88 -1.02,9.69l0 4.93c0.04,0.53 0.1,0.97 0.18,1.29 2.01,7.84 9.17,10.71 16.37,12.13 3.21,0.64 6.79,0.99 10.56,0.99 17.05,-0.01 34.45,0.13 51.46,0 1.61,-0.02 1.18,-0.11 2.22,0.55l5.27 3.35c3.79,2.23 8.31,5.41 12.13,7.74 0.81,0.49 4.91,3.25 5.39,3.3 0.03,-0.03 0.08,-0.12 0.1,-0.09l10.63 -6.83c1.24,-0.76 2.36,-1.54 3.6,-2.27 1.17,-0.69 2.42,-1.51 3.6,-2.26 1.24,-0.79 2.43,-1.49 3.58,-2.27 1.93,-1.31 1.65,-1.29 4.47,-1.36 1.15,-0.03 4.74,-0.08 5.48,-0.5 2.09,-0.51 5.09,-1.75 7.21,-2.53 7.93,-2.93 13.65,-4.11 18.95,-9.86 0.68,-0.74 0.25,-0.06 1.17,-1.3 3.1,-4.19 3.88,-5.93 5.35,-11.42 0.96,-3.58 3.43,-12.21 4.03,-15.2 0.49,-1.02 8.32,-31.06 9.28,-34.64 0.31,-1.14 1.24,-4.16 1.26,-5.04z"/>
   <path class="fil1" d="M400.89 56.06l28.5 0c-0.02,0.71 -13.99,51.86 -15.16,55.87 -0.44,1.52 -0.79,2.83 -1.21,4.33l-1.87 6.45c-0.19,0.68 -0.54,1.54 -0.56,2.21l29.73 0c0.33,-1.41 0.72,-2.83 1.13,-4.26 0.44,-1.48 0.7,-2.79 1.13,-4.27l2.3 -8.63c0.74,-2.95 1.57,-5.66 2.31,-8.63 1.98,-7.9 4.78,-17.89 6.96,-25.85l4.66 -17.22 28.5 0 0.73 -2.96c0.27,-1.05 0.5,-2.11 0.79,-3.06l4.64 -18.16 -86.27 0c-0.02,0.97 -2.76,11.16 -3.05,12.2l-2.46 8.94c-0.2,0.69 -0.79,2.46 -0.8,3.04z"/>
   <path class="fil0" d="M31.12 102.7c0.04,1.19 -2.31,9.2 -2.8,11.05 -0.49,1.82 -0.97,3.65 -1.45,5.48 -0.43,1.65 -1.12,3.78 -1.39,5.4l27.55 0 5.83 -21.79c0.68,-2.43 5.47,-21.24 5.97,-21.75 -0.04,-0.91 1.36,-5.55 1.69,-6.78 0.58,-2.15 1.39,-4.64 1.78,-6.77l-27.79 0c-0.32,1.86 -4.01,15.17 -4.65,17.7 -0.47,1.88 -4.32,17 -4.74,17.46z"/>
   <path class="fil3" d="M188.82 58.31c-0.02,0.88 -0.95,3.9 -1.26,5.04 -0.96,3.58 -8.79,33.62 -9.28,34.64 -0.6,2.99 -3.07,11.62 -4.03,15.2 -1.47,5.49 -2.25,7.23 -5.35,11.42 -0.92,1.24 -0.49,0.56 -1.17,1.3 -5.3,5.75 -11.02,6.93 -18.95,9.86 -2.12,0.78 -5.12,2.02 -7.21,2.53l0 0.18c5.24,0 11.88,-1.27 16.82,-2.5 1.61,-0.4 3.48,-0.92 4.96,-1.51 3.56,-1.42 7.98,-4.08 10.39,-7.17 2.06,-2.66 1.3,-1.26 3.39,-4.78 2.69,-4.55 5.51,-18.16 7.46,-24.73 1.41,-4.75 2.71,-10.38 4.11,-15.3 0.97,-3.41 1.71,-6.73 2.7,-10.08 0.48,-1.62 0.94,-3.45 1.37,-5.1l5.43 -20.3c1.44,-5.27 2.77,-11.14 0.99,-16.62 -0.99,-3.03 -2.76,-5.75 -5.25,-7.69 -2.8,-2.2 -5.2,-2.93 -9.22,-3.72 -7.01,-1.39 -4.49,-1.43 -11.63,-1.43 0.53,0.45 1,0.43 1.76,0.58 2.71,0.54 10.11,2.21 11.85,3.06 3.41,1.65 6.6,5 7.6,9.42 1.1,4.82 -0.57,9.85 -1.79,14.42 -0.17,0.64 -3.16,12.83 -3.69,13.28z"/>
   <path class="fil0" d="M43.92 55.97c1.25,-0.24 17.93,-0.08 20.69,-0.08 1.98,0 5,0.17 6.86,-0.05l0.62 -2.28 5.84 -21.69 -28.12 -0.03 -5.89 24.13z"/>
   <path class="fil4" d="M140.2 77.98l0.36 -0.66c0.09,-0.24 0.14,-0.45 0.22,-0.7 0.17,-0.52 0.34,-0.99 0.51,-1.49 0.34,-0.96 0.66,-1.89 0.99,-2.85l13.85 -40.41 -6.06 0.01c-1.44,7.73 -3.35,15.46 -4.95,22.92 -0.82,3.85 -1.65,7.69 -2.5,11.52 -0.37,1.66 -2.47,10.78 -2.42,11.66z"/>
   <path class="fil3" d="M123.48 124.47l-15.15 -46.5c-0.3,0.63 8.36,41.18 9.27,46.65l4.47 0c0.72,0 0.98,0.08 1.41,-0.15z"/>
   <path class="fil4" d="M166.74 17.53c-0.56,-0.43 -1.04,-0.69 -1.67,-1.09 -3.98,-2.57 -8.7,-5.31 -12.5,-7.82l-7.12 -4.44c-0.62,-0.39 -1.16,-0.75 -1.79,-1.14 -0.95,-0.6 -1.17,-0.89 -2.02,-0.9 -1.92,-0.05 -3.93,0.01 -5.87,0.01 4.43,3.11 12.44,7.9 17.58,11.22 0.59,0.38 1.15,0.73 1.79,1.13 0.65,0.41 1.2,0.77 1.8,1.13 0.64,0.39 1.18,0.76 1.8,1.13 0.81,0.5 0.91,0.79 2.14,0.79 1.95,-0.01 3.91,-0.02 5.86,-0.02z"/>
   <path class="fil5" d="M110.11 153.88l0.09 0 6.02 0c1.15,-0.14 2.74,-1.45 3.66,-2.03l20.67 -12.92c0.56,-0.34 0.84,-0.31 1.02,-0.45l0 -0.18c-0.74,0.42 -4.33,0.47 -5.48,0.5 -2.82,0.07 -2.54,0.05 -4.47,1.36 -1.15,0.78 -2.34,1.48 -3.58,2.27 -1.18,0.75 -2.43,1.57 -3.6,2.26 -1.24,0.73 -2.36,1.51 -3.6,2.27l-10.63 6.83c-0.02,-0.03 -0.07,0.06 -0.1,0.09z"/>
  </g>
 </g>
</svg>
