<?xml version="1.0" encoding="UTF-8"?>
<!DOCTYPE svg PUBLIC "-//W3C//DTD SVG 1.1//EN" "http://www.w3.org/Graphics/SVG/1.1/DTD/svg11.dtd">
<!-- Creator: CorelDRAW X7 -->
<svg xmlns="http://www.w3.org/2000/svg" xml:space="preserve" width="43.3492mm" height="43.3492mm" version="1.1" style="shape-rendering:geometricPrecision; text-rendering:geometricPrecision; image-rendering:optimizeQuality; fill-rule:evenodd; clip-rule:evenodd"
viewBox="0 0 4335 4335"
 xmlns:xlink="http://www.w3.org/1999/xlink">
 <defs>
  <style type="text/css">
   <![CDATA[
    .fil0 {fill:black}
    .fil2 {fill:#3AB249}
    .fil4 {fill:#55A4E5}
    .fil5 {fill:#60B7FF}
    .fil3 {fill:#665D66}
    .fil6 {fill:#D2DDE4}
    .fil7 {fill:#E6404D}
    .fil1 {fill:#E9F4FE}
    .fil8 {fill:#FFBB33}
   ]]>
  </style>
 </defs>
 <g id="Layer_x0020_1">
  <metadata id="CorelCorpID_0Corel-Layer"/>
  <g id="_2400494047248">
   <path class="fil0" d="M1538 297c-116,0 -223,7 -292,110 -18,28 -40,52 -43,91 -98,0 -448,-12 -515,5 -124,32 -223,146 -223,297l0 3003c0,117 55,212 127,259 106,69 171,52 334,52l1544 -1c104,0 84,6 142,51 118,92 254,140 393,151l123 0c381,-30 742,-332 742,-789 0,-212 -84,-378 -179,-500 -42,-53 -119,-120 -177,-159 -47,-31 -176,-99 -239,-104 0,-108 14,-1961 -10,-2045 -13,-48 -35,-93 -68,-126 -85,-86 -119,-94 -283,-94 -126,0 -252,0 -377,0 -6,-62 -68,-127 -113,-156 -71,-47 -111,-45 -223,-45 -11,-137 -159,-277 -310,-277 -195,0 -311,99 -353,277z"/>
   <path class="fil1" d="M1192 1018c-8,-12 -6,-4 -11,-24l-3 -93 -249 0 0 2810 1378 3c5,-89 -41,-164 1,-356 59,-268 298,-549 576,-593 0,-205 12,-1821 -6,-1878l-324 -1c-14,101 39,233 -185,232l-856 0c-161,0 -262,34 -321,-100z"/>
   <path class="fil2" d="M3015 2860c-349,34 -640,341 -603,734 32,342 344,640 734,600 345,-35 638,-343 599,-735 -34,-344 -342,-638 -730,-599z"/>
   <path class="fil3" d="M1313 999c322,13 664,2 989,2 167,0 130,77 131,-360 1,-260 -142,-220 -274,-227 -134,-8 -9,-202 -226,-269 -125,-38 -254,34 -279,201 -23,154 -241,-26 -330,164 -22,47 -24,425 -11,489z"/>
   <path class="fil4" d="M2437 3984c-77,-15 -1362,0 -1508,-5l0 -126 1428 0c-10,-25 -253,-12 -290,-12l-1217 -2c-103,-13 -111,-97 -111,-204l0 -2441c0,-316 -50,-423 190,-426l0 -152c-116,-1 -226,-19 -294,53 -68,71 -49,187 -49,299l0 2785c0,114 18,195 110,230 50,20 268,12 339,12 464,0 928,0 1393,0 24,-7 9,0 9,-11z"/>
   <path class="fil5" d="M2551 768l296 0c204,0 155,202 155,376 0,212 -9,1504 2,1596l151 -1 0 -1738c0,-441 -1,-385 -604,-385l0 152z"/>
   <path class="fil0" d="M2241 1233c-46,20 -36,72 -36,129 0,119 -10,809 9,843 23,41 84,30 138,30 247,0 209,39 209,-302 0,-82 9,-647 -9,-679 -26,-48 -302,-25 -311,-21z"/>
   <path class="fil0" d="M1692 1496l0 655c0,111 73,84 274,84 67,0 82,-18 82,-84l0 -655c0,-108 -95,-80 -275,-80 -64,0 -81,16 -81,80z"/>
   <path class="fil6" d="M2307 3714l-1378 -3 0 -2810 249 0 3 93c5,20 3,12 11,24l-2 -129 -328 -3c-16,55 -6,1253 -6,1416 0,166 -15,1367 8,1420l1443 -8z"/>
   <path class="fil0" d="M1180 1689l0 462c0,111 69,84 274,84 65,0 82,-21 82,-84l0 -462c0,-111 -66,-85 -274,-85 -68,0 -82,19 -82,85z"/>
   <path class="fil5" d="M2437 3984c-9,-15 -74,-125 -80,-131l-1428 0 0 126c146,5 1431,-10 1508,5z"/>
   <path class="fil0" d="M1262 2811l1216 0c113,0 113,-118 0,-118l-1216 0c-51,0 -84,11 -81,61 2,44 36,57 81,57z"/>
   <path class="fil0" d="M1262 2524l1216 0c112,0 113,-117 0,-117l-1221 0c-107,0 -104,117 5,117z"/>
   <path class="fil0" d="M2939 3695c-65,-32 -166,-192 -227,-195 -43,-1 -71,35 -56,82 9,25 114,122 139,147 33,34 104,135 172,103l503 -497c32,-32 43,-48 25,-105 -80,-42 -122,29 -162,69 -109,109 -311,300 -394,396z"/>
   <path class="fil0" d="M1262 3097l780 0c42,0 48,-9 75,-29 9,-66 -11,-89 -75,-89l-785 0c-110,0 -103,118 5,118z"/>
   <path class="fil0" d="M1262 3383l780 0c106,0 105,-118 0,-118l-780 0c-112,0 -112,118 0,118z"/>
   <path class="fil0" d="M1463 772c-52,15 -89,115 58,114 122,0 729,6 762,-4 29,-10 100,-114 -65,-113 -124,1 -720,-7 -755,3z"/>
   <polygon class="fil2" points="2322,2113 2352,2119 2411,2118 2444,2118 2444,1345 2322,1346 "/>
   <polygon class="fil7" points="1810,2114 1931,2118 1931,1534 1812,1534 "/>
   <polygon class="fil8" points="1297,2115 1329,2118 1387,2118 1418,2116 1418,1725 1297,1722 "/>
   <polygon class="fil5" points="929,768 1190,768 1190,616 929,616 "/>
   <path class="fil0" d="M1815 367c22,16 42,38 77,24 24,-9 44,-38 35,-71 -16,-57 -127,-68 -112,47z"/>
  </g>
 </g>
</svg>
